<?xml version="1.0" encoding="UTF-8" standalone="no"?><!DOCTYPE svg PUBLIC "-//W3C//DTD SVG 1.1//EN" "http://www.w3.org/Graphics/SVG/1.1/DTD/svg11.dtd"><svg width="100%" height="100%" viewBox="0 0 28 31" version="1.1" xmlns="http://www.w3.org/2000/svg" xmlns:xlink="http://www.w3.org/1999/xlink" xml:space="preserve" xmlns:serif="http://www.serif.com/" style="fill-rule:evenodd;clip-rule:evenodd;stroke-linejoin:round;stroke-miterlimit:1.41421;"><path id="new.2e..-A" d="M22.413,15.201l-1.939,4.628c0,0 2.964,7.227 3.981,9.709c0.205,0.5 0.691,0.826 1.231,0.826c0.283,0 0.525,-0.039 0.807,-0.115c0.808,-0.193 1.414,-0.844 1.414,-1.574c0,-0.231 -0.041,-0.422 -0.122,-0.653l-5.372,-12.821l0,0Zm-18.961,14.337c-0.205,0.5 -0.691,0.826 -1.231,0.826c-0.283,0 -0.525,-0.039 -0.807,-0.115c-0.809,-0.193 -1.414,-0.844 -1.414,-1.574c0,-0.231 0.041,-0.422 0.122,-0.653l5.372,-12.821l1.938,4.628c0,0 -2.962,7.227 -3.98,9.709l0,0Zm10.501,-29.538l0.001,0c0.143,0 0.349,0.007 0.485,0.021c1.054,0.105 1.897,0.629 2.361,1.782l3.674,8.77l-1.897,4.628l-4.626,-11.013l-4.621,11.013l-1.898,-4.628l3.675,-8.77c0.463,-1.153 1.307,-1.677 2.361,-1.782c0.136,-0.014 0.342,-0.021 0.483,-0.021l0.002,0Z" style="fill:#f00;"/></svg>