<?xml version="1.0" encoding="UTF-8" standalone="no"?><!DOCTYPE svg PUBLIC "-//W3C//DTD SVG 1.1//EN" "http://www.w3.org/Graphics/SVG/1.1/DTD/svg11.dtd"><svg width="100%" height="100%" viewBox="0 0 92 82" version="1.1" xmlns="http://www.w3.org/2000/svg" xmlns:xlink="http://www.w3.org/1999/xlink" xml:space="preserve" xmlns:serif="http://www.serif.com/" style="fill-rule:evenodd;clip-rule:evenodd;stroke-linejoin:round;stroke-miterlimit:1.41421;"><g><path d="M75.408,26.464c-0.976,-0.335 -1.961,-0.646 -2.953,-0.931c0.165,-0.669 0.317,-1.341 0.457,-2.015c2.234,-10.855 0.773,-19.6 -4.217,-22.479c-4.784,-2.761 -12.609,0.118 -20.512,6.999c-0.778,0.68 -1.54,1.379 -2.283,2.097c-0.498,-0.477 -1.005,-0.946 -1.52,-1.404c-8.282,-7.359 -16.584,-10.459 -21.569,-7.572c-4.78,2.769 -6.195,10.99 -4.183,21.278c0.2,1.018 0.426,2.032 0.678,3.039c-1.175,0.334 -2.31,0.69 -3.395,1.068c-9.71,3.387 -15.911,8.696 -15.911,14.203c0,5.687 6.657,11.392 16.771,14.851c0.82,0.279 1.647,0.538 2.48,0.776c-0.271,1.085 -0.511,2.177 -0.721,3.276c-1.918,10.109 -0.42,18.135 4.347,20.887c4.924,2.841 13.188,-0.079 21.236,-7.118c0.636,-0.556 1.274,-1.146 1.913,-1.765c0.806,0.777 1.632,1.532 2.48,2.263c7.794,6.712 15.493,9.422 20.256,6.663c4.919,-2.849 6.518,-11.472 4.442,-21.963c-0.158,-0.801 -0.343,-1.62 -0.55,-2.453c0.58,-0.171 1.15,-0.349 1.705,-0.533c10.515,-3.485 17.355,-9.121 17.355,-14.884c0,-5.526 -6.401,-10.871 -16.306,-14.283l0,0Zm-6.633,30.715c-0.043,0.01 -0.087,0.02 -0.13,0.03l-0.049,0.011l-0.089,0.02c-0.03,0.007 -0.06,0.014 -0.09,0.02c-0.227,0.051 -0.456,0.102 -0.685,0.151l-0.037,0.008l-0.046,0.01l-0.045,0.009c-0.28,0.06 -0.561,0.118 -0.845,0.175c-0.144,0.029 -0.289,0.058 -0.434,0.087c-0.065,0.012 -0.13,0.025 -0.194,0.037c-0.13,0.025 -0.26,0.05 -0.391,0.075c-0.14,0.026 -0.28,0.052 -0.421,0.078c-0.399,0.073 -0.801,0.143 -1.206,0.212l-0.062,0.01l-0.096,0.016c-0.243,0.04 -0.487,0.08 -0.732,0.119l-0.04,0.006l-0.043,0.007c-0.225,0.035 -0.45,0.069 -0.677,0.103c-0.236,0.036 -0.473,0.07 -0.71,0.104c-0.41,0.058 -0.822,0.113 -1.238,0.167c-0.123,0.015 -0.247,0.031 -0.371,0.047c-0.162,0.02 -0.324,0.039 -0.486,0.059c-0.114,0.014 -0.228,0.027 -0.342,0.04l-0.102,0.012c-0.083,0.01 -0.166,0.019 -0.25,0.029l-0.054,0.006l-0.03,0.003c-0.12,0.013 -0.239,0.027 -0.358,0.04c-0.164,0.017 -0.328,0.035 -0.492,0.052c-0.081,0.008 -0.163,0.016 -0.244,0.025l-0.014,0.001c-0.406,0.041 -0.815,0.08 -1.226,0.117l-0.104,0.009c-0.534,0.774 -1.071,1.531 -1.61,2.272l-0.052,0.071l-0.119,0.163c-0.299,0.408 -0.598,0.81 -0.897,1.206c-0.049,0.064 -0.097,0.128 -0.145,0.192c-0.04,0.052 -0.08,0.105 -0.12,0.157c-0.063,0.083 -0.127,0.166 -0.19,0.248c-0.079,0.104 -0.159,0.207 -0.239,0.31c-0.22,0.285 -0.441,0.567 -0.662,0.846l-0.026,0.033l-0.048,0.06c-0.103,0.129 -0.206,0.258 -0.308,0.385c-0.219,0.273 -0.438,0.542 -0.658,0.808l-0.012,0.015l-0.004,0.005c-0.053,0.064 -0.105,0.128 -0.158,0.191l-0.019,0.023l-0.004,0.005l-0.056,0.067l-0.019,0.023l-0.042,0.05l-0.028,0.034c-0.167,0.2 -0.333,0.397 -0.5,0.593l-0.016,0.019c-0.238,0.28 -0.477,0.557 -0.716,0.83c-0.126,0.143 -0.251,0.285 -0.377,0.427c-0.066,0.075 -0.133,0.15 -0.2,0.224c-0.154,0.172 -0.308,0.342 -0.462,0.511c0.098,0.095 0.196,0.188 0.294,0.282c0.133,0.125 0.265,0.25 0.397,0.373c0.296,0.276 0.591,0.546 0.886,0.809c0.042,0.038 0.084,0.075 0.126,0.112c0.177,0.158 0.354,0.313 0.531,0.466l0.072,0.062c0.026,0.022 0.052,0.045 0.078,0.067l0.078,0.067c0.038,0.032 0.076,0.064 0.114,0.096c0.545,0.463 1.088,0.902 1.625,1.317c0.108,0.083 0.216,0.166 0.323,0.247c0.282,0.213 0.562,0.42 0.84,0.619c0.035,0.025 0.07,0.05 0.105,0.075l0.066,0.048l0.053,0.037c0.146,0.103 0.292,0.205 0.437,0.304l0.036,0.025l0.036,0.025c0.347,0.237 0.691,0.463 1.031,0.678c0.296,0.187 0.589,0.366 0.879,0.537c0.052,0.03 0.103,0.06 0.155,0.09l0.023,0.014l0.014,0.008c0.17,0.098 0.34,0.194 0.509,0.288c0.215,0.118 0.428,0.233 0.639,0.342l0.036,0.019l0.025,0.012c0.054,0.028 0.108,0.056 0.163,0.083c0.068,0.035 0.137,0.069 0.205,0.103c0.059,0.029 0.117,0.058 0.175,0.086c0.075,0.036 0.151,0.072 0.226,0.108l0.028,0.013l0.017,0.008c0.072,0.034 0.143,0.066 0.214,0.099c0.131,0.059 0.261,0.117 0.39,0.173c0.092,0.04 0.183,0.079 0.274,0.116c0.075,0.032 0.15,0.062 0.225,0.092c0.033,0.014 0.067,0.027 0.1,0.04c0.152,0.06 0.303,0.117 0.452,0.172c0.053,0.019 0.105,0.038 0.158,0.057c0.101,0.036 0.202,0.07 0.302,0.103c0.046,0.016 0.091,0.03 0.137,0.045c0.082,0.027 0.164,0.052 0.245,0.077l0.059,0.018l0.008,0.002c0.325,0.097 0.641,0.18 0.949,0.247c0.057,0.013 0.114,0.025 0.171,0.037c0.067,0.013 0.133,0.026 0.199,0.039c0.057,0.01 0.113,0.02 0.168,0.029c0.061,0.011 0.122,0.02 0.182,0.03c0.025,0.003 0.05,0.007 0.075,0.011c0.118,0.016 0.235,0.031 0.351,0.043c0.05,0.005 0.101,0.01 0.151,0.014c0.435,0.038 0.847,0.04 1.232,0.006c0.031,-0.003 0.061,-0.006 0.092,-0.009l0.011,-0.001l0.034,-0.004c0.025,-0.003 0.05,-0.006 0.075,-0.009c0.035,-0.005 0.069,-0.009 0.104,-0.014c0.078,-0.012 0.155,-0.025 0.231,-0.04l0.021,-0.004c0.042,-0.008 0.084,-0.017 0.125,-0.027c0.024,-0.005 0.047,-0.011 0.071,-0.016c0.019,-0.005 0.038,-0.01 0.056,-0.015l0.009,-0.002c0.022,-0.006 0.044,-0.012 0.066,-0.018c0.022,-0.006 0.045,-0.012 0.067,-0.019c0.018,-0.005 0.036,-0.011 0.054,-0.016c0.076,-0.024 0.149,-0.049 0.221,-0.076c0.096,-0.036 0.19,-0.075 0.28,-0.117l0.018,-0.009c0.016,-0.008 0.032,-0.016 0.049,-0.024c0.014,-0.007 0.028,-0.014 0.042,-0.021c0.017,-0.009 0.034,-0.018 0.051,-0.027c0.035,-0.018 0.069,-0.037 0.102,-0.057c0.015,-0.008 0.029,-0.017 0.044,-0.025c0.007,-0.004 0.014,-0.009 0.02,-0.013l0.016,-0.009l0.013,-0.008l0.002,-0.002l0.013,-0.008c0.007,-0.004 0.014,-0.009 0.021,-0.013c0.01,-0.006 0.019,-0.013 0.029,-0.019l0.016,-0.011c0.01,-0.006 0.02,-0.013 0.029,-0.019c0.045,-0.03 0.088,-0.062 0.132,-0.094c0.019,-0.015 0.039,-0.03 0.058,-0.045c0.02,-0.015 0.039,-0.03 0.059,-0.046l0.011,-0.009l0.004,-0.003l0.004,-0.004c0.178,-0.146 0.35,-0.314 0.516,-0.503c0.068,-0.078 0.135,-0.159 0.201,-0.244c0.045,-0.059 0.09,-0.118 0.134,-0.18c0.045,-0.063 0.09,-0.127 0.134,-0.194l0.026,-0.039l0.016,-0.026c0.066,-0.102 0.131,-0.208 0.194,-0.318l0.017,-0.03l0.014,-0.025c0.016,-0.029 0.032,-0.058 0.049,-0.087c0.019,-0.036 0.039,-0.073 0.058,-0.109c0.019,-0.035 0.037,-0.071 0.055,-0.107c0.013,-0.025 0.026,-0.052 0.04,-0.078c0.012,-0.025 0.025,-0.051 0.037,-0.077c0.063,-0.13 0.125,-0.264 0.184,-0.403l0.003,-0.008l0.01,-0.023c0.086,-0.202 0.168,-0.413 0.246,-0.632c0.028,-0.079 0.055,-0.16 0.082,-0.241c0.121,-0.364 0.23,-0.75 0.328,-1.159c0.017,-0.07 0.034,-0.141 0.05,-0.213l0.015,-0.066c0.011,-0.051 0.023,-0.103 0.034,-0.155c0.011,-0.054 0.022,-0.109 0.033,-0.164l0.003,-0.014l0.005,-0.022l0.009,-0.046l0.006,-0.03c0.011,-0.058 0.022,-0.117 0.033,-0.176c0.005,-0.025 0.01,-0.051 0.014,-0.076l0,0l0.005,-0.027l0.009,-0.05l0,0l0,0l0.006,-0.035l0.007,-0.042l0,0l0.001,-0.001l0.006,-0.04l0.007,-0.036l0,0l0,-0.001l0.008,-0.047l0.005,-0.03l0,0l0,-0.001l0.009,-0.055l0.003,-0.021l0,-0.001l0.001,-0.002l0.01,-0.064l0.002,-0.012l0,0l0,-0.002l0.011,-0.075l0.001,-0.001l0,0c0.482,-3.166 0.316,-7.107 -0.546,-11.492l-0.496,-2.22l-0.089,0.02Zm-45.763,0.308l-0.009,0.036l-0.001,0.002c-0.037,0.151 -0.073,0.304 -0.109,0.456c-0.022,0.09 -0.043,0.181 -0.064,0.272l-0.007,0.029l-0.012,0.053c-0.025,0.107 -0.049,0.214 -0.073,0.321c-0.012,0.055 -0.024,0.11 -0.036,0.165l-0.005,0.022c-0.018,0.082 -0.036,0.164 -0.054,0.247c-0.021,0.096 -0.041,0.192 -0.061,0.289c-0.07,0.333 -0.137,0.667 -0.201,1.002c-0.074,0.388 -0.142,0.771 -0.204,1.149c-0.024,0.147 -0.047,0.293 -0.07,0.438c-0.029,0.192 -0.057,0.382 -0.084,0.571c-0.037,0.261 -0.071,0.521 -0.102,0.777c-0.046,0.375 -0.087,0.745 -0.121,1.109c-0.041,0.431 -0.074,0.853 -0.098,1.268c-0.003,0.049 -0.006,0.098 -0.009,0.147c-0.043,0.76 -0.059,1.493 -0.05,2.194c0.002,0.142 0.005,0.282 0.008,0.421c0.006,0.188 0.013,0.373 0.021,0.557c0.006,0.105 0.011,0.209 0.018,0.313c0.002,0.045 0.005,0.09 0.008,0.134l0.003,0.045l0.002,0.021c0.015,0.225 0.034,0.445 0.055,0.662c0.006,0.061 0.012,0.122 0.018,0.182c0.018,0.17 0.038,0.337 0.06,0.502c0.009,0.074 0.019,0.148 0.03,0.221c0.004,0.028 0.008,0.056 0.012,0.084c0.015,0.106 0.032,0.211 0.049,0.314c0.015,0.092 0.031,0.184 0.047,0.274c0.006,0.035 0.013,0.07 0.019,0.105c0.009,0.05 0.019,0.099 0.028,0.148c0.009,0.044 0.017,0.086 0.026,0.129l0.005,0.023l0.013,0.064l0.011,0.053c0.028,0.128 0.056,0.254 0.086,0.378c0.007,0.031 0.015,0.061 0.022,0.092l0.01,0.037l0.015,0.061l0.002,0.008c0.054,0.213 0.112,0.42 0.174,0.62c0.012,0.039 0.025,0.078 0.037,0.117c0.033,0.102 0.066,0.202 0.1,0.3l0.014,0.04l0.008,0.02c0.083,0.234 0.172,0.458 0.267,0.672c0.024,0.054 0.048,0.108 0.073,0.16c0.025,0.054 0.05,0.107 0.076,0.16c0.041,0.083 0.082,0.163 0.125,0.242c0.04,0.074 0.08,0.147 0.122,0.218c0.15,0.258 0.311,0.496 0.481,0.71c0.027,0.034 0.055,0.068 0.082,0.101c0.013,0.016 0.027,0.031 0.04,0.047c0.061,0.072 0.124,0.141 0.187,0.207c0.01,0.009 0.019,0.019 0.028,0.028c0.033,0.033 0.065,0.065 0.098,0.097c0.019,0.017 0.037,0.035 0.055,0.052c0.045,0.041 0.09,0.08 0.136,0.119l0.015,0.013c0.012,0.01 0.023,0.019 0.035,0.028c0.056,0.046 0.112,0.09 0.17,0.131c0.031,0.023 0.063,0.045 0.095,0.067c0.023,0.015 0.046,0.03 0.069,0.045c0.011,0.007 0.021,0.014 0.032,0.02c0.009,0.006 0.019,0.012 0.029,0.018l0.012,0.008c0.021,0.012 0.042,0.025 0.062,0.037l0.003,0.001c0.056,0.033 0.114,0.064 0.174,0.094c0.026,0.013 0.052,0.025 0.079,0.038c0.216,0.101 0.452,0.185 0.706,0.25c0.036,0.009 0.073,0.018 0.11,0.026c0.038,0.009 0.076,0.017 0.114,0.025l0.031,0.006l0.022,0.005c0.045,0.009 0.091,0.017 0.137,0.024c0.025,0.005 0.05,0.009 0.075,0.012c0.055,0.009 0.11,0.016 0.166,0.023c0.026,0.003 0.051,0.006 0.077,0.009c0.036,0.004 0.072,0.007 0.109,0.01c0.079,0.008 0.159,0.013 0.241,0.018c0.171,0.008 0.347,0.011 0.529,0.007c0.033,0 0.066,-0.001 0.099,-0.002c0.047,-0.002 0.094,-0.004 0.142,-0.006c0.267,-0.014 0.546,-0.04 0.835,-0.08l0.016,-0.002l0.009,-0.002l0.047,-0.006l0.051,-0.008c0.048,-0.007 0.097,-0.015 0.145,-0.023c0.134,-0.021 0.27,-0.046 0.408,-0.074l0.029,-0.005l0.028,-0.006c0.17,-0.035 0.342,-0.073 0.517,-0.116c0.043,-0.011 0.087,-0.021 0.13,-0.032c0.088,-0.023 0.178,-0.046 0.268,-0.071c0.078,-0.022 0.156,-0.044 0.235,-0.067l0.052,-0.015l0.036,-0.01c0.122,-0.036 0.245,-0.074 0.369,-0.114c0.067,-0.022 0.134,-0.044 0.202,-0.067c0.081,-0.026 0.162,-0.054 0.244,-0.083l0.001,0c0.111,-0.04 0.223,-0.081 0.335,-0.123c0.06,-0.023 0.12,-0.046 0.18,-0.069c0.058,-0.022 0.115,-0.045 0.173,-0.068c0.401,-0.16 0.807,-0.336 1.218,-0.527c0.09,-0.043 0.182,-0.086 0.273,-0.13c0.102,-0.049 0.204,-0.099 0.306,-0.15l0.043,-0.021l0.056,-0.028c0.112,-0.057 0.225,-0.114 0.338,-0.173l0.079,-0.041c0.038,-0.021 0.076,-0.041 0.115,-0.061l0.043,-0.023l0.057,-0.031l0.022,-0.012l0.057,-0.03c0.105,-0.057 0.21,-0.115 0.316,-0.173c0.041,-0.023 0.082,-0.046 0.124,-0.07c0.059,-0.033 0.119,-0.067 0.178,-0.101c0.051,-0.029 0.101,-0.058 0.152,-0.087c0.274,-0.159 0.549,-0.324 0.826,-0.495c0.175,-0.109 0.351,-0.22 0.527,-0.333c0.298,-0.192 0.597,-0.392 0.897,-0.598c0.404,-0.278 0.809,-0.569 1.216,-0.872l0.004,-0.003l0.049,-0.036c0.134,-0.101 0.268,-0.202 0.402,-0.305c0.332,-0.254 0.664,-0.517 0.996,-0.787l0.041,-0.033l0.077,-0.063c0.124,-0.102 0.248,-0.205 0.373,-0.309c0.155,-0.13 0.31,-0.261 0.465,-0.394c0.109,-0.094 0.219,-0.189 0.328,-0.285c0.095,-0.083 0.19,-0.167 0.284,-0.251c0.153,-0.136 0.305,-0.273 0.456,-0.411l0.035,-0.032l0.048,-0.044c0.111,-0.102 0.222,-0.205 0.333,-0.309l0.054,-0.051c0.022,-0.02 0.044,-0.041 0.066,-0.062c0.138,-0.13 0.276,-0.261 0.413,-0.393c0.02,-0.019 0.039,-0.038 0.059,-0.057c-0.097,-0.104 -0.194,-0.209 -0.291,-0.314l-0.023,-0.025l-0.058,-0.063c-0.354,-0.386 -0.708,-0.779 -1.062,-1.178l-0.007,-0.009l-0.03,-0.033c-0.107,-0.122 -0.215,-0.245 -0.322,-0.368l-0.023,-0.026l-0.028,-0.033c-0.05,-0.057 -0.1,-0.114 -0.15,-0.172c-0.03,-0.035 -0.06,-0.069 -0.09,-0.104c-0.23,-0.266 -0.458,-0.534 -0.687,-0.805c-0.092,-0.109 -0.185,-0.219 -0.277,-0.33c-0.498,-0.596 -0.993,-1.204 -1.486,-1.825l-0.01,-0.012l-0.032,-0.04c-0.255,-0.322 -0.51,-0.648 -0.764,-0.977c-0.13,-0.167 -0.259,-0.335 -0.388,-0.505c-0.182,-0.237 -0.363,-0.477 -0.543,-0.718l-0.042,-0.055l-0.029,-0.039c-0.077,-0.104 -0.155,-0.208 -0.232,-0.312c-0.163,-0.22 -0.326,-0.442 -0.489,-0.665l-0.093,-0.128l-0.107,-0.147c-0.094,-0.129 -0.187,-0.259 -0.281,-0.389c-0.11,-0.153 -0.219,-0.306 -0.329,-0.461l-0.206,-0.017c-0.309,-0.025 -0.616,-0.052 -0.922,-0.08c-0.278,-0.025 -0.555,-0.052 -0.831,-0.079c-0.204,-0.02 -0.408,-0.041 -0.612,-0.062l-0.101,-0.011c-0.039,-0.004 -0.079,-0.008 -0.118,-0.012c-0.18,-0.02 -0.36,-0.039 -0.538,-0.059c-0.207,-0.023 -0.413,-0.047 -0.618,-0.071c-0.178,-0.021 -0.355,-0.043 -0.531,-0.065l-0.099,-0.012l-0.001,0c-0.299,-0.037 -0.597,-0.076 -0.894,-0.116c-0.446,-0.059 -0.888,-0.122 -1.326,-0.187l-0.027,-0.004l-0.096,-0.014c-0.047,-0.007 -0.095,-0.015 -0.142,-0.022l-0.05,-0.007l-0.096,-0.015c-0.221,-0.034 -0.441,-0.069 -0.66,-0.104c-0.076,-0.012 -0.152,-0.024 -0.227,-0.037l-0.064,-0.01c-0.284,-0.047 -0.565,-0.095 -0.845,-0.144l-0.093,-0.016c-0.208,-0.037 -0.415,-0.074 -0.621,-0.112l-0.028,-0.005l-0.012,-0.002c-0.18,-0.033 -0.36,-0.067 -0.538,-0.101c-0.07,-0.014 -0.139,-0.027 -0.208,-0.041c-0.39,-0.075 -0.776,-0.154 -1.157,-0.234c-0.076,-0.016 -0.151,-0.032 -0.227,-0.048c-0.039,-0.009 -0.079,-0.017 -0.118,-0.026l-0.089,-0.019c-0.029,-0.006 -0.059,-0.013 -0.088,-0.019l-0.088,-0.02l-0.088,-0.019l-0.024,0.095l-0.014,0.058Zm28.382,1.922c-1.762,0.079 -3.552,0.12 -5.362,0.123l-0.175,0c-1.763,0 -3.498,-0.033 -5.201,-0.098l-0.165,-0.006c1.809,2.385 3.661,4.603 5.518,6.608l0.084,-0.093c1.739,-1.923 3.486,-4.074 5.217,-6.42l0.084,-0.114Zm-5.536,-33.364c-0.208,0 -0.415,0.001 -0.621,0.002l-0.041,0l-0.133,0.001c-0.044,0.001 -0.088,0.001 -0.132,0.001l-0.132,0.002c-0.308,0.002 -0.616,0.007 -0.924,0.012l-0.131,0.003c-0.135,0.002 -0.27,0.005 -0.405,0.008c-0.084,0.002 -0.169,0.004 -0.253,0.006l-0.132,0.003c-0.218,0.006 -0.437,0.012 -0.655,0.019l-0.131,0.005l-0.131,0.004l-0.101,0.004c-0.365,0.013 -0.729,0.027 -1.093,0.044l-0.111,0.005l-0.126,0.006c-0.261,0.012 -0.522,0.025 -0.783,0.039c-0.302,0.017 -0.604,0.034 -0.904,0.053l-0.129,0.008c-0.172,0.011 -0.344,0.023 -0.515,0.034c-0.089,0.007 -0.178,0.013 -0.267,0.019c-0.125,0.009 -0.249,0.018 -0.374,0.027l-0.128,0.01c-0.221,0.324 -0.44,0.649 -0.658,0.976c-0.052,0.079 -0.105,0.158 -0.157,0.237c-0.637,0.96 -1.258,1.931 -1.865,2.911c-0.143,0.232 -0.286,0.465 -0.428,0.699c-0.128,0.21 -0.256,0.421 -0.382,0.633c-0.09,0.149 -0.179,0.299 -0.268,0.449c-0.096,0.162 -0.192,0.324 -0.287,0.487l-0.008,0.013l-0.061,0.105c-0.089,0.153 -0.179,0.307 -0.267,0.46l-0.066,0.114l0,-0.001l-0.065,0.113c-0.037,0.065 -0.074,0.13 -0.111,0.194l-0.019,0.033l-0.064,0.112c-0.036,0.063 -0.071,0.126 -0.107,0.188c-0.133,0.234 -0.265,0.469 -0.396,0.703c-0.134,0.242 -0.268,0.484 -0.401,0.727c-0.149,0.271 -0.297,0.543 -0.443,0.815c-0.177,0.33 -0.353,0.66 -0.527,0.992c-0.031,0.06 -0.063,0.121 -0.094,0.181c-0.059,0.113 -0.118,0.225 -0.176,0.338c-0.047,0.091 -0.095,0.183 -0.141,0.274c-0.029,0.056 -0.058,0.112 -0.087,0.169c-0.072,0.139 -0.143,0.279 -0.214,0.419l-0.015,0.03l-0.027,0.054c-0.2,0.394 -0.397,0.789 -0.591,1.186c-0.043,0.087 -0.085,0.174 -0.128,0.26c-0.035,0.074 -0.071,0.147 -0.107,0.221c-0.058,0.121 -0.117,0.241 -0.175,0.362l-0.013,0.027c0.057,0.118 0.114,0.236 0.171,0.353l0.057,0.118c0.039,0.08 0.078,0.159 0.117,0.239c0.111,0.226 0.223,0.452 0.335,0.678c0.035,0.068 0.069,0.137 0.103,0.205c0.048,0.095 0.095,0.189 0.143,0.283l0.059,0.117c0.053,0.105 0.106,0.209 0.159,0.314c0.037,0.072 0.074,0.145 0.112,0.217l0.028,0.056c0.076,0.147 0.152,0.295 0.229,0.442c0.353,0.68 0.714,1.357 1.082,2.03c0.068,0.124 0.136,0.247 0.204,0.371c0.066,0.12 0.133,0.24 0.199,0.36c0.098,0.175 0.195,0.349 0.293,0.523c0.107,0.189 0.214,0.377 0.321,0.565l0.04,0.07l0.049,0.085c0.055,0.097 0.111,0.194 0.167,0.29l0.045,0.078c0.045,0.078 0.09,0.156 0.136,0.234l0.062,0.107l0.041,0.07c0.063,0.108 0.126,0.216 0.189,0.323c0.045,0.076 0.089,0.151 0.133,0.226l0.037,0.061l0.008,0.014c0.062,0.104 0.124,0.208 0.186,0.313l0.034,0.056c0.112,0.187 0.224,0.374 0.337,0.56l0.043,0.071l0.023,0.038c0.141,0.232 0.283,0.464 0.426,0.695l0.035,0.057l0.066,0.106l0.007,0.012c0.078,0.125 0.156,0.25 0.234,0.375l0.037,0.059l0.053,0.085c0.071,0.112 0.142,0.225 0.213,0.338c0.051,0.081 0.103,0.162 0.155,0.243c0.1,0.157 0.2,0.314 0.301,0.471c0.099,0.153 0.198,0.306 0.297,0.459c0.32,0.491 0.644,0.98 0.971,1.467c0.096,0.142 0.192,0.284 0.289,0.426c0.056,0.083 0.113,0.166 0.169,0.249c0.134,0.008 0.267,0.017 0.401,0.025c0.104,0.006 0.207,0.013 0.31,0.019c0.225,0.013 0.451,0.025 0.677,0.038l0.127,0.006c1.753,0.092 3.548,0.148 5.377,0.167c0.142,0.001 0.285,0.002 0.427,0.003c0.09,0.001 0.179,0.002 0.268,0.002l0.05,0l0.133,0.001c0.084,0 0.169,0.001 0.253,0.001c0.094,0 0.187,0 0.281,0c0.398,0 0.796,-0.002 1.192,-0.006l0.014,0l0.133,-0.001c0.08,-0.001 0.16,-0.002 0.24,-0.003l0.027,-0.001l0.002,0c0.133,-0.001 0.265,-0.003 0.398,-0.005l0.133,-0.003c0.594,-0.01 1.186,-0.025 1.775,-0.044l0.077,-0.002l0.036,-0.002c0.542,-0.018 1.082,-0.039 1.618,-0.065l0.047,-0.002l0.057,-0.003c0.078,-0.003 0.156,-0.007 0.234,-0.011c0.644,-0.032 1.284,-0.07 1.919,-0.112c0.081,-0.006 0.161,-0.011 0.242,-0.017c0.085,-0.006 0.17,-0.012 0.255,-0.018c0.081,-0.122 0.163,-0.245 0.244,-0.368c0.154,-0.233 0.308,-0.468 0.46,-0.702c0.209,-0.321 0.417,-0.643 0.623,-0.966l0.017,-0.028l0.03,-0.045c0.18,-0.283 0.359,-0.567 0.538,-0.852l0.057,-0.092l0.06,-0.096c0.066,-0.105 0.131,-0.21 0.197,-0.316l0.018,-0.03l0.05,-0.081c0.039,-0.063 0.078,-0.125 0.117,-0.188l0.039,-0.064l0.061,-0.1c0.087,-0.14 0.173,-0.282 0.259,-0.423c0.241,-0.396 0.48,-0.793 0.718,-1.194c0.102,-0.172 0.204,-0.344 0.306,-0.517c0.033,-0.057 0.067,-0.115 0.101,-0.172l0.04,-0.068l0.053,-0.092c0.044,-0.074 0.087,-0.148 0.13,-0.222c0.074,-0.128 0.149,-0.256 0.223,-0.385l0.059,-0.102l0,0c0.123,-0.214 0.246,-0.428 0.367,-0.642l0.03,-0.052l0.041,-0.073l0.025,-0.043l0.049,-0.088c0.045,-0.079 0.09,-0.158 0.134,-0.237l0.012,-0.021l0.029,-0.051c0.212,-0.379 0.422,-0.758 0.63,-1.137c0.067,-0.124 0.135,-0.247 0.202,-0.371c0.188,-0.347 0.374,-0.694 0.558,-1.041c0.037,-0.07 0.074,-0.141 0.112,-0.211c0.037,-0.072 0.075,-0.144 0.113,-0.215l0.036,-0.07c0.058,-0.11 0.116,-0.221 0.173,-0.331c0.179,-0.344 0.356,-0.689 0.531,-1.034c0.069,-0.137 0.139,-0.275 0.208,-0.413c0.145,-0.289 0.289,-0.579 0.432,-0.869l0.03,-0.061l0.018,-0.036c0.071,-0.144 0.141,-0.288 0.211,-0.433l-0.003,-0.005c-0.057,-0.116 -0.115,-0.232 -0.173,-0.348c-0.099,-0.198 -0.198,-0.396 -0.298,-0.593c-0.058,-0.114 -0.116,-0.228 -0.174,-0.341c-0.164,-0.322 -0.329,-0.643 -0.496,-0.964c-0.06,-0.116 -0.121,-0.232 -0.181,-0.347l-0.041,-0.077l-0.053,-0.101c-0.261,-0.496 -0.525,-0.99 -0.793,-1.483c-0.028,-0.052 -0.056,-0.103 -0.084,-0.155c-0.148,-0.271 -0.297,-0.542 -0.447,-0.812l-0.051,-0.092l-0.038,-0.07l-0.025,-0.044l-0.037,-0.066c-0.138,-0.247 -0.276,-0.494 -0.415,-0.74c-0.055,-0.097 -0.11,-0.193 -0.165,-0.29c-0.096,-0.169 -0.193,-0.338 -0.29,-0.507l-0.059,-0.102l-0.061,-0.106c-0.023,-0.04 -0.047,-0.08 -0.07,-0.12c-0.049,-0.085 -0.099,-0.171 -0.148,-0.256c-0.396,-0.681 -0.799,-1.359 -1.209,-2.032c-0.173,-0.286 -0.348,-0.57 -0.524,-0.854l-0.059,-0.095l-0.062,-0.099c-0.054,-0.087 -0.108,-0.174 -0.163,-0.261c-0.129,-0.206 -0.258,-0.411 -0.389,-0.617c-0.059,-0.093 -0.119,-0.187 -0.179,-0.281c-0.095,-0.149 -0.191,-0.298 -0.287,-0.447c-0.066,-0.102 -0.132,-0.204 -0.198,-0.306c-0.088,-0.136 -0.177,-0.272 -0.266,-0.407l-0.029,-0.045c-0.041,-0.062 -0.081,-0.124 -0.122,-0.186c-0.086,-0.129 -0.171,-0.258 -0.257,-0.387c-0.04,-0.061 -0.08,-0.122 -0.121,-0.182c-0.091,-0.137 -0.183,-0.274 -0.275,-0.41c-0.043,-0.065 -0.087,-0.13 -0.131,-0.195c-0.095,-0.007 -0.191,-0.014 -0.287,-0.021c-0.203,-0.015 -0.406,-0.03 -0.61,-0.043l-0.029,-0.002c-0.462,-0.032 -0.926,-0.06 -1.391,-0.085c-0.137,-0.008 -0.274,-0.015 -0.411,-0.022c-0.253,-0.013 -0.506,-0.025 -0.76,-0.036l-0.13,-0.006c-0.087,-0.004 -0.174,-0.007 -0.261,-0.011l-0.116,-0.004l-0.015,-0.001l-0.131,-0.005c-0.392,-0.015 -0.786,-0.028 -1.181,-0.039c-0.131,-0.003 -0.263,-0.007 -0.395,-0.01l-0.132,-0.003c-0.047,-0.001 -0.094,-0.002 -0.141,-0.003c-0.219,-0.005 -0.438,-0.009 -0.658,-0.012c-0.252,-0.004 -0.505,-0.007 -0.757,-0.009c-0.056,-0.001 -0.112,-0.001 -0.167,-0.002c-0.22,-0.001 -0.441,-0.002 -0.661,-0.002l-0.133,-0.001Zm-18.778,19.406c-1.165,2.766 -2.163,5.485 -2.973,8.101c2.616,0.57 5.449,1.025 8.453,1.36c-0.997,-1.548 -1.958,-3.119 -2.88,-4.713c-0.875,-1.513 -1.716,-3.046 -2.522,-4.598l-0.078,-0.15Zm37.63,-0.141c-0.851,1.64 -1.738,3.261 -2.66,4.862c-0.908,1.575 -1.846,3.132 -2.816,4.67l0.142,-0.017c2.973,-0.361 5.796,-0.845 8.414,-1.442c-0.808,-2.532 -1.822,-5.193 -3.023,-7.942l-0.057,-0.131Zm-44.352,-16.058c-1.062,0.301 -2.115,0.632 -3.157,0.994c-8.304,2.897 -13.283,7.16 -13.283,10.501c0,1.57 1.148,3.506 3.423,5.455c2.532,2.169 6.225,4.157 10.697,5.686c0.749,0.255 1.504,0.491 2.264,0.709l0.027,-0.088c1.155,-3.753 2.673,-7.69 4.499,-11.667c-1.803,-3.918 -3.299,-7.793 -4.443,-11.502l-0.027,-0.088Zm51.048,0.058c-0.045,0.145 -0.09,0.29 -0.136,0.435c-0.025,0.079 -0.049,0.157 -0.074,0.235c-0.29,0.908 -0.603,1.827 -0.937,2.757l-0.02,0.055l-0.015,0.042c-0.03,0.082 -0.06,0.165 -0.09,0.247c-0.028,0.077 -0.056,0.153 -0.084,0.23c-0.235,0.64 -0.481,1.285 -0.736,1.933c-0.063,0.16 -0.127,0.32 -0.191,0.481c-0.071,0.178 -0.143,0.356 -0.216,0.534c-0.036,0.089 -0.072,0.178 -0.109,0.267c-0.021,0.05 -0.041,0.1 -0.062,0.15l-0.021,0.051c-0.168,0.408 -0.341,0.817 -0.517,1.227l-0.023,0.055l-0.002,0.005l-0.077,0.178l-0.066,0.153c-0.077,0.178 -0.155,0.355 -0.234,0.533c-0.054,0.123 -0.108,0.246 -0.163,0.369c-0.074,0.166 -0.148,0.331 -0.223,0.497l-0.045,0.1l-0.047,0.104c-0.076,0.168 -0.153,0.336 -0.23,0.504l-0.06,0.13l-0.067,0.145l-0.019,0.039c0.294,0.618 0.579,1.233 0.855,1.845c0.054,0.119 0.107,0.237 0.161,0.356c0.06,0.135 0.121,0.27 0.18,0.406c0.035,0.078 0.07,0.156 0.104,0.235c0.133,0.302 0.264,0.603 0.393,0.904l0.04,0.093c0.021,0.05 0.043,0.101 0.064,0.151c0.042,0.098 0.083,0.195 0.124,0.292c0.12,0.285 0.239,0.57 0.355,0.853c0.066,0.16 0.131,0.319 0.195,0.479l0.025,0.062l0.012,0.03c0.054,0.133 0.108,0.267 0.16,0.4l0.017,0.04c0.045,0.114 0.09,0.228 0.134,0.341c0.035,0.088 0.069,0.177 0.104,0.265c0.053,0.139 0.107,0.277 0.16,0.415l0.019,0.05l0.017,0.045c0.091,0.237 0.18,0.474 0.267,0.709c0.029,0.078 0.058,0.155 0.086,0.232l0.033,0.09c0.183,0.499 0.36,0.994 0.529,1.486c0.019,0.055 0.038,0.109 0.056,0.164l0.019,0.053c0.104,0.304 0.205,0.607 0.304,0.908c0.012,0.039 0.025,0.078 0.038,0.117l0.028,0.087c0.042,0.13 0.084,0.26 0.125,0.39c0.014,0.043 0.027,0.086 0.041,0.128l1.54,-0.482l0.001,0l0.106,-0.036c0.052,-0.017 0.103,-0.034 0.155,-0.052c0.161,-0.054 0.32,-0.109 0.479,-0.165c0.205,-0.071 0.408,-0.144 0.609,-0.217c0.157,-0.057 0.313,-0.115 0.468,-0.173c0.422,-0.159 0.836,-0.321 1.241,-0.486c0.663,-0.27 1.302,-0.549 1.915,-0.834l0.031,-0.015l0.046,-0.021c0.135,-0.063 0.269,-0.127 0.401,-0.19c0.08,-0.039 0.159,-0.077 0.238,-0.116c0.156,-0.076 0.31,-0.153 0.462,-0.23c0.083,-0.042 0.166,-0.085 0.247,-0.127c0.065,-0.033 0.129,-0.067 0.193,-0.1l0.042,-0.022l0.06,-0.031l0.022,-0.012l0.027,-0.015c0.28,-0.148 0.552,-0.297 0.819,-0.448l0.032,-0.018l0.007,-0.004c0.055,-0.031 0.109,-0.063 0.163,-0.094c0.354,-0.204 0.696,-0.41 1.025,-0.617l0.064,-0.041c0.239,-0.151 0.472,-0.304 0.697,-0.457c0.049,-0.033 0.098,-0.067 0.147,-0.1c0.101,-0.07 0.201,-0.14 0.299,-0.21c0.085,-0.061 0.168,-0.121 0.251,-0.181c0.354,-0.26 0.689,-0.521 1.003,-0.783l0.016,-0.013l0.044,-0.037c0.065,-0.054 0.129,-0.109 0.192,-0.164c0.051,-0.043 0.1,-0.087 0.15,-0.13c0.061,-0.054 0.121,-0.108 0.18,-0.162c0.075,-0.068 0.148,-0.136 0.22,-0.204c0.065,-0.062 0.129,-0.123 0.191,-0.185c0.044,-0.043 0.087,-0.086 0.13,-0.128l0.01,-0.011l0.032,-0.033c0.055,-0.055 0.108,-0.11 0.16,-0.165c0.323,-0.339 0.611,-0.678 0.862,-1.015c0.059,-0.079 0.116,-0.158 0.171,-0.237c0.064,-0.093 0.126,-0.186 0.185,-0.279c0.041,-0.064 0.081,-0.128 0.119,-0.192c0.107,-0.18 0.203,-0.359 0.288,-0.536c0.007,-0.015 0.015,-0.031 0.022,-0.046c0.012,-0.026 0.024,-0.051 0.035,-0.076l0.003,-0.007l0.005,-0.011c0.005,-0.011 0.01,-0.022 0.015,-0.033l0.009,-0.023c0.008,-0.016 0.015,-0.033 0.022,-0.05c0.005,-0.013 0.011,-0.026 0.016,-0.039l0.009,-0.022c0.008,-0.018 0.015,-0.036 0.022,-0.055c0.023,-0.058 0.045,-0.117 0.066,-0.175c0.008,-0.024 0.016,-0.048 0.024,-0.071c0.006,-0.016 0.011,-0.032 0.016,-0.048c0.017,-0.052 0.033,-0.103 0.048,-0.155c0.003,-0.011 0.006,-0.021 0.009,-0.032c0.011,-0.041 0.022,-0.083 0.032,-0.124c0.009,-0.033 0.017,-0.067 0.024,-0.101c0.026,-0.113 0.046,-0.226 0.061,-0.338l0.001,-0.009l0.001,-0.006c0.006,-0.048 0.011,-0.095 0.015,-0.142c0.002,-0.016 0.003,-0.032 0.004,-0.047c0.002,-0.024 0.004,-0.047 0.005,-0.071c0.003,-0.047 0.004,-0.094 0.005,-0.141c0,-0.018 0.001,-0.037 0.001,-0.055c0,-0.013 -0.001,-0.026 -0.001,-0.039c0,-0.019 0,-0.037 -0.001,-0.055l0,-0.004l0,-0.01c-0.001,-0.03 -0.003,-0.059 -0.004,-0.089c-0.001,-0.014 -0.002,-0.029 -0.003,-0.044l-0.001,-0.015l-0.001,-0.007c-0.004,-0.047 -0.008,-0.094 -0.014,-0.141l-0.001,-0.011l-0.001,-0.006c-0.011,-0.085 -0.025,-0.171 -0.042,-0.258c-0.02,-0.101 -0.044,-0.202 -0.072,-0.304c-0.005,-0.017 -0.01,-0.034 -0.015,-0.051c-0.011,-0.037 -0.023,-0.075 -0.035,-0.113c-0.018,-0.056 -0.037,-0.112 -0.057,-0.168c-0.013,-0.035 -0.026,-0.07 -0.04,-0.105c-0.113,-0.291 -0.26,-0.587 -0.438,-0.887c-0.09,-0.15 -0.188,-0.302 -0.295,-0.454c-0.051,-0.074 -0.104,-0.148 -0.16,-0.222c-0.048,-0.065 -0.098,-0.13 -0.149,-0.196c-0.06,-0.076 -0.122,-0.152 -0.186,-0.228c-0.112,-0.134 -0.23,-0.268 -0.353,-0.403c-0.132,-0.143 -0.27,-0.286 -0.415,-0.429c-0.071,-0.07 -0.143,-0.14 -0.217,-0.21c-0.067,-0.064 -0.136,-0.128 -0.206,-0.192l-0.013,-0.012l-0.029,-0.026c-0.145,-0.132 -0.296,-0.264 -0.452,-0.395c-0.17,-0.143 -0.345,-0.286 -0.528,-0.429c-0.375,-0.294 -0.777,-0.586 -1.204,-0.876l-0.024,-0.016l-0.035,-0.024c-0.057,-0.038 -0.115,-0.076 -0.172,-0.115c-0.149,-0.098 -0.301,-0.197 -0.455,-0.294c-0.091,-0.058 -0.183,-0.115 -0.276,-0.172l-0.057,-0.036l-0.042,-0.025c-0.27,-0.165 -0.548,-0.329 -0.834,-0.491c-0.054,-0.03 -0.108,-0.061 -0.162,-0.091c-0.079,-0.044 -0.158,-0.088 -0.239,-0.132c-0.062,-0.034 -0.124,-0.068 -0.187,-0.102l-0.067,-0.036l-0.04,-0.022c-0.08,-0.042 -0.16,-0.085 -0.241,-0.127l-0.028,-0.015l-0.057,-0.03c-0.059,-0.031 -0.119,-0.061 -0.179,-0.092l-0.079,-0.041c-0.137,-0.07 -0.275,-0.139 -0.415,-0.208c-0.364,-0.181 -0.74,-0.359 -1.125,-0.534c-0.108,-0.049 -0.217,-0.098 -0.326,-0.147l-0.05,-0.022l-0.054,-0.024l-0.033,-0.015l-0.045,-0.02c-0.474,-0.208 -0.963,-0.411 -1.465,-0.61c-0.042,-0.017 -0.085,-0.034 -0.127,-0.05l-0.083,-0.033l-0.016,-0.006c-0.489,-0.191 -0.991,-0.377 -1.506,-0.558l-0.015,-0.006l-0.074,-0.025c-0.074,-0.026 -0.149,-0.052 -0.223,-0.078c-0.102,-0.035 -0.204,-0.07 -0.307,-0.104c-0.247,-0.084 -0.497,-0.166 -0.749,-0.247l-0.03,-0.01l-0.049,-0.016c-0.21,-0.067 -0.421,-0.133 -0.634,-0.198l-0.087,-0.027c-0.066,-0.02 -0.133,-0.04 -0.2,-0.06c-0.126,-0.038 -0.252,-0.076 -0.379,-0.114c-0.068,-0.02 -0.136,-0.04 -0.204,-0.059l-0.088,-0.026Zm-9.372,2.148l2.638,4.775c0.654,-1.531 1.252,-3.04 1.791,-4.52c0.109,-0.299 0.215,-0.596 0.319,-0.892c0.094,-0.267 0.185,-0.532 0.275,-0.797c0.031,-0.093 0.063,-0.186 0.094,-0.279c0.033,-0.1 0.066,-0.199 0.099,-0.299c0.026,-0.079 0.052,-0.159 0.078,-0.238c0.021,-0.065 0.043,-0.13 0.064,-0.196c0.036,-0.114 0.073,-0.227 0.109,-0.341l0.032,-0.102l0.028,-0.089c0.016,-0.05 0.031,-0.099 0.047,-0.149c-0.048,-0.011 -0.095,-0.021 -0.143,-0.032c-0.45,-0.102 -0.905,-0.201 -1.365,-0.296c-0.091,-0.019 -0.183,-0.038 -0.274,-0.057c-0.099,-0.02 -0.197,-0.04 -0.296,-0.06l-0.055,-0.011l-0.121,-0.023c-0.484,-0.096 -0.973,-0.188 -1.467,-0.277c-0.207,-0.037 -0.414,-0.073 -0.623,-0.109l-0.121,-0.021l-0.095,-0.016c-0.264,-0.045 -0.53,-0.088 -0.796,-0.131c-0.219,-0.035 -0.439,-0.069 -0.659,-0.103c-0.155,-0.023 -0.31,-0.046 -0.465,-0.069l-0.115,-0.017l-0.082,-0.012c-0.088,-0.013 -0.177,-0.025 -0.266,-0.038c-0.425,-0.06 -0.852,-0.118 -1.283,-0.173l-0.137,-0.017l2.789,4.589Zm-29.558,-4.597c-0.273,0.035 -0.544,0.07 -0.815,0.106l-0.135,0.018c-0.101,0.013 -0.202,0.027 -0.302,0.041c-0.698,0.097 -1.389,0.2 -2.071,0.309c-0.196,0.032 -0.392,0.064 -0.588,0.097c-0.42,0.07 -0.836,0.143 -1.249,0.218c-0.081,0.015 -0.163,0.03 -0.244,0.045l-0.025,0.005l-0.04,0.007l-0.088,0.017l-0.087,0.016c-0.056,0.011 -0.112,0.021 -0.168,0.032l-0.128,0.024c-0.323,0.063 -0.645,0.126 -0.964,0.192l-0.046,0.009l-0.126,0.026c-0.09,0.019 -0.181,0.038 -0.272,0.057l-0.102,0.021l-0.045,0.01c-0.126,0.027 -0.252,0.054 -0.378,0.081c-0.126,0.028 -0.251,0.055 -0.376,0.083l-0.066,0.015c0.08,0.256 0.161,0.513 0.244,0.77c0.063,0.198 0.128,0.396 0.194,0.595c0.136,0.413 0.277,0.828 0.422,1.245c0.091,0.26 0.183,0.521 0.277,0.783c0.027,0.074 0.054,0.148 0.081,0.222c0.036,0.101 0.073,0.203 0.11,0.304c0.487,1.325 1.016,2.668 1.587,4.022l2.588,-4.746l2.812,-4.624Zm32.006,-22.95c-3.317,0.001 -8.384,2.432 -13.727,7.085c-0.718,0.627 -1.422,1.273 -2.109,1.935c2.622,2.826 5.233,6.091 7.753,9.682c4.326,0.406 8.458,1.06 12.263,1.938l0.028,-0.113c0.137,-0.568 0.266,-1.139 0.384,-1.711c1.93,-9.373 0.735,-16.519 -2.336,-18.292c-0.597,-0.344 -1.341,-0.518 -2.207,-0.524l-0.049,0Zm-37.354,0.087c-0.924,0.003 -1.719,0.186 -2.354,0.554c-2.88,1.668 -4.025,8.317 -2.301,17.132l0,-0.001l0.017,0.089c0.182,0.918 0.387,1.831 0.613,2.739l0.089,-0.02c3.772,-0.851 7.87,-1.487 12.15,-1.883c2.515,-3.553 5.148,-6.812 7.812,-9.675c-0.46,-0.44 -0.919,-0.865 -1.376,-1.271c-5.642,-5.013 -11.057,-7.648 -14.597,-7.664l-0.053,0Zm18.773,11.737c-1.836,1.981 -3.661,4.166 -5.443,6.517l0.17,-0.008c1.749,-0.079 3.5,-0.119 5.25,-0.118l0.17,0c1.75,0.003 3.501,0.045 5.25,0.128l-0.083,-0.111c-1.726,-2.293 -3.479,-4.412 -5.229,-6.316l-0.085,-0.092Z" style="fill:#53c1de;"/><path d="M45.857,32.552c4.523,0 8.19,3.669 8.19,8.195c0,4.526 -3.667,8.195 -8.19,8.195c-4.523,0 -8.19,-3.669 -8.19,-8.195c0,-4.526 3.667,-8.195 8.19,-8.195" style="fill:#53c1de;fill-rule:nonzero;"/></g></svg>