<?xml version="1.0" encoding="UTF-8" standalone="no"?><!DOCTYPE svg PUBLIC "-//W3C//DTD SVG 1.1//EN" "http://www.w3.org/Graphics/SVG/1.1/DTD/svg11.dtd"><svg width="100%" height="100%" viewBox="0 0 45 63" version="1.1" xmlns="http://www.w3.org/2000/svg" xmlns:xlink="http://www.w3.org/1999/xlink" xml:space="preserve" xmlns:serif="http://www.serif.com/" style="fill-rule:evenodd;clip-rule:evenodd;stroke-linejoin:round;stroke-miterlimit:1.41421;"><g><path d="M25.351,56.552l-5.85,0c-0.539,0 -0.975,0.436 -0.975,0.975l0,0.975c0,2.151 1.75,3.9 3.9,3.9c2.151,0 3.9,-1.749 3.9,-3.9l0,-0.975c0,-0.539 -0.436,-0.975 -0.975,-0.975Z" style="fill:#868491;fill-rule:nonzero;"/><path d="M22.425,56.552l-2.924,0c-0.539,0 -0.975,0.436 -0.975,0.975l0,0.975c0,2.151 1.749,3.899 3.899,3.9l0,-5.85Z" style="fill:#5c546a;fill-rule:nonzero;"/><path d="M37.78,6.081c-4.558,-4.283 -10.527,-6.428 -16.787,-6.035c-11.409,0.71 -20.626,10.227 -20.982,21.666c-0.263,8.476 4.19,16.28 11.62,20.368c1.847,1.017 2.995,2.97 2.995,5.098l0,7.424c0,2.151 1.749,3.9 3.9,3.9l7.8,0c2.151,0 3.9,-1.749 3.9,-3.9l0,-7.424c0,-2.126 1.156,-4.084 3.018,-5.11c7.16,-3.95 11.607,-11.476 11.607,-19.642c0,-6.164 -2.577,-12.122 -7.071,-16.345Z" style="fill:#ffcd00;fill-rule:nonzero;"/><circle cx="22.425" cy="22.426" r="15.6" style="fill:#ffe671;"/><path d="M25.836,28.276c-1.296,0 -1.959,-0.756 -2.441,-1.307c-0.426,-0.485 -0.595,-0.643 -0.975,-0.643c-0.378,0 -0.547,0.158 -0.971,0.642c-0.455,0.521 -1.143,1.308 -2.439,1.308c-1.295,0 -1.983,-0.787 -2.439,-1.308c-0.423,-0.484 -0.592,-0.642 -0.97,-0.642c-0.539,0 -0.975,-0.436 -0.975,-0.975c0,-0.539 0.436,-0.975 0.975,-0.975c1.295,0 1.983,0.788 2.439,1.309c0.423,0.484 0.592,0.641 0.97,0.641c0.378,0 0.547,-0.157 0.971,-0.641c0.455,-0.521 1.144,-1.309 2.439,-1.309c1.296,0 1.958,0.756 2.441,1.308c0.426,0.485 0.595,0.642 0.975,0.642c0.379,0 0.548,-0.157 0.974,-0.641c0.456,-0.521 1.145,-1.309 2.441,-1.309c0.539,0 0.975,0.436 0.975,0.975c0,0.539 -0.436,0.975 -0.975,0.975c-0.38,0 -0.549,0.158 -0.975,0.643c-0.456,0.521 -1.144,1.307 -2.44,1.307Z" style="fill:#fff;fill-rule:nonzero;"/><path d="M19.5,46.802c-0.448,0 -0.852,-0.312 -0.952,-0.768l-4.875,-22.425c-0.114,-0.527 0.22,-1.046 0.746,-1.161c0.529,-0.116 1.045,0.22 1.16,0.746l4.875,22.425c0.115,0.527 -0.22,1.046 -0.745,1.161c-0.071,0.015 -0.14,0.022 -0.209,0.022Z" style="fill:#5c546a;fill-rule:nonzero;"/><path d="M25.352,46.802c-0.068,0 -0.138,-0.007 -0.208,-0.022c-0.526,-0.115 -0.86,-0.634 -0.746,-1.161l4.875,-22.425c0.115,-0.526 0.63,-0.861 1.161,-0.746c0.526,0.115 0.86,0.634 0.745,1.161l-4.875,22.425c-0.099,0.457 -0.503,0.768 -0.952,0.768Z" style="fill:#5c546a;fill-rule:nonzero;"/><path d="M14.458,45.827c0.104,0.438 0.168,0.889 0.168,1.351l0,7.424c0,2.151 1.749,3.9 3.9,3.9l7.8,0c2.151,0 3.9,-1.749 3.9,-3.9l0,-7.424c0,-0.462 0.064,-0.913 0.169,-1.351l-15.937,0Z" style="fill:#b4b6bc;fill-rule:nonzero;"/><path d="M22.425,45.827l-7.967,0c0.104,0.438 0.168,0.889 0.168,1.351l0,7.424c0,2.151 1.749,3.9 3.9,3.9l3.899,0l0,-12.675Z" style="fill:#868491;fill-rule:nonzero;"/><rect x="22.425" y="48.752" width="7.8" height="1.95" style="fill:#868491;"/><rect x="22.426" y="52.652" width="7.8" height="1.95" style="fill:#868491;"/><rect x="14.625" y="48.752" width="7.8" height="1.95" style="fill:#5c546a;"/><rect x="14.625" y="52.652" width="7.8" height="1.95" style="fill:#5c546a;"/></g></svg>