<?xml version="1.0" encoding="UTF-8" standalone="no"?><!DOCTYPE svg PUBLIC "-//W3C//DTD SVG 1.1//EN" "http://www.w3.org/Graphics/SVG/1.1/DTD/svg11.dtd"><svg width="100%" height="100%" viewBox="0 0 63 63" version="1.1" xmlns="http://www.w3.org/2000/svg" xmlns:xlink="http://www.w3.org/1999/xlink" xml:space="preserve" xmlns:serif="http://www.serif.com/" style="fill-rule:evenodd;clip-rule:evenodd;stroke-linejoin:round;stroke-miterlimit:1.41421;"><g><path d="M45.956,55.928c-2.172,0 -4.621,-0.459 -7.276,-1.382c-6.126,-2.131 -12.7,-6.504 -18.511,-12.315c-5.811,-5.811 -10.184,-12.385 -12.315,-18.511c-2.213,-6.362 -1.756,-11.54 1.285,-14.581c3.04,-3.04 8.218,-3.499 14.581,-1.285c6.126,2.131 12.7,6.504 18.511,12.315c5.811,5.811 10.184,12.385 12.315,18.511c2.213,6.362 1.756,11.54 -1.285,14.581c-1.772,1.772 -4.269,2.667 -7.305,2.667Zm-29.514,-47.512c-2.504,0 -4.527,0.704 -5.925,2.101c-2.484,2.484 -2.775,6.945 -0.821,12.562c2.036,5.854 6.245,12.166 11.852,17.773c5.607,5.607 11.919,9.816 17.773,11.852c5.618,1.953 10.077,1.662 12.562,-0.821c2.484,-2.484 2.775,-6.945 0.821,-12.562c-2.036,-5.854 -6.245,-12.166 -11.852,-17.773c-5.607,-5.607 -11.919,-9.816 -17.773,-11.852c-2.456,-0.854 -4.692,-1.28 -6.637,-1.28Z" style="fill:#ffcd00;fill-rule:nonzero;"/><path d="M16.444,55.928c-3.036,0 -5.533,-0.895 -7.305,-2.667c-3.041,-3.041 -3.497,-8.219 -1.285,-14.581c2.131,-6.126 6.504,-12.7 12.315,-18.511c5.811,-5.811 12.385,-10.184 18.511,-12.315c6.363,-2.214 11.541,-1.755 14.581,1.285c3.041,3.041 3.498,8.219 1.285,14.581c-2.131,6.126 -6.504,12.7 -12.315,18.511c-5.811,5.811 -12.385,10.184 -18.511,12.315c-2.655,0.923 -5.104,1.382 -7.276,1.382Zm29.514,-47.512c-1.946,0 -4.181,0.426 -6.637,1.28c-5.854,2.036 -12.166,6.245 -17.773,11.852c-5.607,5.607 -9.816,11.919 -11.852,17.773c-1.954,5.617 -1.663,10.078 0.821,12.562c2.484,2.485 6.946,2.774 12.562,0.821c5.854,-2.036 12.166,-6.245 17.773,-11.852c5.607,-5.607 9.816,-11.919 11.852,-17.773c1.954,-5.617 1.663,-10.078 -0.821,-12.562c-1.398,-1.397 -3.421,-2.101 -5.925,-2.101Z" style="fill:#ff9100;fill-rule:nonzero;"/><path d="M31.2,62.4c-8.747,0 -15.6,-13.704 -15.6,-31.2c0,-17.496 6.853,-31.2 15.6,-31.2c8.747,0 15.6,13.704 15.6,31.2c0,17.496 -6.853,31.2 -15.6,31.2Zm0,-60.45c-7.399,0 -13.65,13.395 -13.65,29.25c0,15.855 6.251,29.25 13.65,29.25c7.399,0 13.65,-13.395 13.65,-29.25c0,-15.855 -6.251,-29.25 -13.65,-29.25Z" style="fill:#ff4f19;fill-rule:nonzero;"/><circle cx="31.187" cy="31.213" r="6.812" style="fill:#ff4f19;"/><circle cx="32.871" cy="29.51" r="2.384" style="fill:#ff8c62;"/><path d="M31.2,46.8c-17.496,0 -31.2,-6.853 -31.2,-15.6c0,-8.747 13.704,-15.6 31.2,-15.6c17.496,0 31.2,6.853 31.2,15.6c0,8.747 -13.704,15.6 -31.2,15.6Zm0,-29.25c-15.855,0 -29.25,6.251 -29.25,13.65c0,7.399 13.395,13.65 29.25,13.65c15.855,0 29.25,-6.251 29.25,-13.65c0,-7.399 -13.395,-13.65 -29.25,-13.65Z" style="fill:#e3001e;fill-rule:nonzero;"/></g></svg>