<?xml version="1.0" encoding="UTF-8" standalone="no"?><!DOCTYPE svg PUBLIC "-//W3C//DTD SVG 1.1//EN" "http://www.w3.org/Graphics/SVG/1.1/DTD/svg11.dtd"><svg width="100%" height="100%" viewBox="0 0 62 63" version="1.1" xmlns="http://www.w3.org/2000/svg" xmlns:xlink="http://www.w3.org/1999/xlink" xml:space="preserve" xmlns:serif="http://www.serif.com/" style="fill-rule:evenodd;clip-rule:evenodd;stroke-linejoin:round;stroke-miterlimit:1.41421;"><g><path d="M32.887,23.954l11.251,-23.401c0.163,-0.338 0.503,-0.553 0.879,-0.553l15.717,0c0.335,0 0.646,0.172 0.825,0.456c0.178,0.284 0.198,0.639 0.054,0.941l-14.917,31.027c-0.121,0.25 -0.343,0.438 -0.61,0.515c-0.088,0.025 -0.178,0.037 -0.269,0.037c-0.183,0 -0.363,-0.051 -0.521,-0.151l-12.052,-7.625c-0.418,-0.265 -0.571,-0.801 -0.357,-1.246Z" style="fill:#ff4f19;fill-rule:nonzero;"/><path d="M53.521,0l7.213,0c0.335,0 0.646,0.172 0.825,0.456c0.178,0.284 0.198,0.639 0.054,0.941l-14.917,31.027c-0.121,0.25 -0.343,0.438 -0.61,0.515c-0.088,0.025 -0.178,0.037 -0.269,0.037c-0.183,0 -0.363,-0.051 -0.521,-0.151l-5.794,-3.665l14.019,-29.16Z" style="fill:#e3001e;fill-rule:nonzero;"/><path d="M28.821,23.954l-11.25,-23.401c-0.163,-0.338 -0.504,-0.553 -0.879,-0.553l-15.717,0c-0.335,0 -0.647,0.172 -0.826,0.456c-0.178,0.284 -0.198,0.639 -0.053,0.941l14.916,31.027c0.121,0.25 0.343,0.438 0.611,0.515c0.087,0.025 0.178,0.037 0.268,0.037c0.183,0 0.364,-0.051 0.522,-0.151l12.051,-7.625c0.418,-0.265 0.571,-0.801 0.357,-1.246Z" style="fill:#ff4f19;fill-rule:nonzero;"/><path d="M8.188,0l-7.213,0c-0.335,0 -0.647,0.172 -0.826,0.456c-0.178,0.284 -0.198,0.639 -0.053,0.941l14.916,31.027c0.121,0.25 0.343,0.438 0.611,0.515c0.087,0.025 0.178,0.037 0.268,0.037c0.183,0 0.364,-0.051 0.522,-0.151l5.794,-3.665l-14.019,-29.16Z" style="fill:#e3001e;fill-rule:nonzero;"/><circle cx="30.868" cy="42.9" r="19.5" style="fill:#ffcd00;"/><path d="M30.868,62.4c5.384,0 10.259,-2.183 13.788,-5.711l-27.577,-27.578c-3.529,3.529 -5.711,8.404 -5.711,13.789c0,10.769 8.73,19.5 19.5,19.5Z" style="fill:#ff9100;fill-rule:nonzero;"/><path d="M35.966,52.553c-0.32,0 -0.642,-0.077 -0.939,-0.233l-4.16,-2.186l-4.16,2.186c-0.683,0.359 -1.497,0.299 -2.12,-0.154c-0.626,-0.454 -0.932,-1.209 -0.802,-1.97l0.794,-4.631l-3.365,-3.28c-0.554,-0.54 -0.749,-1.331 -0.51,-2.066c0.239,-0.734 0.862,-1.26 1.627,-1.372l4.65,-0.675l2.08,-4.214c0.341,-0.692 1.033,-1.123 1.805,-1.123l0.001,0c0.774,0 1.466,0.43 1.808,1.123l2.079,4.214l4.649,0.675c0.766,0.112 1.389,0.638 1.628,1.372c0.239,0.735 0.043,1.526 -0.51,2.065l-3.366,3.281l0.795,4.631c0.131,0.761 -0.176,1.516 -0.801,1.97c-0.353,0.257 -0.767,0.387 -1.183,0.387Zm-13.391,-11.665l3.733,3.638c0.229,0.224 0.334,0.547 0.279,0.863l-0.88,5.136l0.547,0.932l-0.453,-0.863l4.613,-2.425c0.284,-0.15 0.623,-0.15 0.907,0l4.613,2.425l1.056,-0.233l-0.961,0.164l-0.882,-5.136c-0.054,-0.316 0.051,-0.639 0.28,-0.863l3.733,-3.638l0.103,-1.076l-0.139,0.965l-5.157,-0.749c-0.318,-0.046 -0.593,-0.246 -0.734,-0.534l-2.307,-4.673c0,0.001 -0.058,0.001 -0.093,0c-0.014,0 -0.024,0 -0.024,0l-2.307,4.674c-0.142,0.287 -0.416,0.487 -0.734,0.533l-5.157,0.749l-0.717,0.81l0.681,-0.699Z" style="fill:#fff;fill-rule:nonzero;"/><path d="M46.47,43.875c-0.254,0 -0.507,-0.108 -0.693,-0.283c-0.185,-0.185 -0.282,-0.439 -0.282,-0.692c0,-0.254 0.097,-0.507 0.282,-0.692c0.361,-0.361 1.014,-0.361 1.375,0c0.186,0.185 0.293,0.438 0.293,0.692c0,0.253 -0.107,0.507 -0.293,0.692c-0.175,0.175 -0.428,0.283 -0.682,0.283Z" style="fill:#fff;fill-rule:nonzero;"/><path d="M30.87,28.275c-0.263,0 -0.507,-0.108 -0.693,-0.283c-0.185,-0.185 -0.282,-0.439 -0.282,-0.692c0,-0.254 0.097,-0.507 0.282,-0.692c0.361,-0.361 1.014,-0.361 1.375,0c0.186,0.185 0.293,0.438 0.293,0.692c0,0.253 -0.107,0.507 -0.293,0.692c-0.175,0.175 -0.428,0.283 -0.682,0.283Z" style="fill:#fff;fill-rule:nonzero;"/><path d="M19.833,32.848c-0.253,0 -0.508,-0.108 -0.683,-0.293c-0.185,-0.175 -0.292,-0.429 -0.292,-0.682c0,-0.264 0.107,-0.517 0.292,-0.693c0.352,-0.36 1.014,-0.36 1.375,0c0.185,0.186 0.283,0.429 0.283,0.693c0,0.253 -0.098,0.507 -0.283,0.682c-0.185,0.185 -0.429,0.293 -0.692,0.293Z" style="fill:#fff;fill-rule:nonzero;"/><path d="M41.897,54.902c-0.253,0 -0.507,-0.097 -0.692,-0.283c-0.175,-0.175 -0.283,-0.429 -0.283,-0.692c0,-0.253 0.108,-0.507 0.283,-0.682c0.37,-0.371 1.014,-0.371 1.384,0c0.175,0.175 0.283,0.429 0.283,0.682c0,0.263 -0.108,0.507 -0.283,0.692c-0.185,0.186 -0.439,0.283 -0.692,0.283Z" style="fill:#fff;fill-rule:nonzero;"/><path d="M41.897,32.848c-0.253,0 -0.507,-0.108 -0.692,-0.283c-0.175,-0.185 -0.283,-0.439 -0.283,-0.692c0,-0.264 0.108,-0.517 0.283,-0.693c0.361,-0.36 1.014,-0.36 1.384,0c0.175,0.176 0.283,0.429 0.283,0.693c0,0.253 -0.108,0.507 -0.283,0.692c-0.185,0.175 -0.439,0.283 -0.692,0.283Z" style="fill:#fff;fill-rule:nonzero;"/><path d="M45.28,37.908c-0.253,0 -0.506,-0.107 -0.692,-0.293c-0.175,-0.175 -0.283,-0.429 -0.283,-0.682c0,-0.263 0.108,-0.517 0.283,-0.692c0.37,-0.361 1.014,-0.361 1.384,0c0.176,0.175 0.283,0.429 0.283,0.692c0,0.253 -0.107,0.507 -0.283,0.682c-0.184,0.186 -0.439,0.293 -0.692,0.293Z" style="fill:#fff;fill-rule:nonzero;"/><path d="M24.893,29.464c-0.254,0 -0.507,-0.107 -0.682,-0.292c-0.186,-0.176 -0.293,-0.429 -0.293,-0.683c0,-0.253 0.107,-0.507 0.293,-0.692c0.36,-0.361 1.014,-0.361 1.374,0c0.185,0.185 0.283,0.429 0.283,0.692c0,0.254 -0.098,0.507 -0.283,0.693c-0.185,0.175 -0.429,0.282 -0.692,0.282Z" style="fill:#fff;fill-rule:nonzero;"/><path d="M45.28,49.842c-0.253,0 -0.506,-0.098 -0.692,-0.283c-0.175,-0.185 -0.283,-0.429 -0.283,-0.692c0,-0.254 0.108,-0.507 0.283,-0.683c0.361,-0.37 1.023,-0.37 1.384,0c0.176,0.176 0.283,0.429 0.283,0.683c0,0.263 -0.107,0.507 -0.283,0.692c-0.184,0.185 -0.439,0.283 -0.692,0.283Z" style="fill:#fff;fill-rule:nonzero;"/><path d="M36.836,29.464c-0.253,0 -0.506,-0.107 -0.692,-0.282c-0.175,-0.186 -0.283,-0.439 -0.283,-0.693c0,-0.263 0.108,-0.516 0.283,-0.692c0.361,-0.361 1.014,-0.361 1.385,0c0.176,0.185 0.282,0.429 0.282,0.692c0,0.254 -0.106,0.507 -0.282,0.693c-0.185,0.175 -0.438,0.282 -0.693,0.282Z" style="fill:#fff;fill-rule:nonzero;"/><path d="M46.158,40.765c-0.264,0 -0.517,-0.108 -0.692,-0.283c-0.186,-0.186 -0.283,-0.439 -0.283,-0.692c0,-0.254 0.097,-0.507 0.283,-0.693c0.361,-0.36 1.014,-0.36 1.375,0c0.184,0.186 0.292,0.439 0.292,0.693c0,0.253 -0.108,0.506 -0.292,0.692c-0.176,0.175 -0.43,0.283 -0.683,0.283Z" style="fill:#fff;fill-rule:nonzero;"/><path d="M27.76,28.587c-0.264,0 -0.508,-0.107 -0.693,-0.283c-0.185,-0.185 -0.282,-0.429 -0.282,-0.692c0,-0.253 0.097,-0.507 0.282,-0.692c0.361,-0.361 1.014,-0.361 1.385,0c0.175,0.185 0.282,0.439 0.282,0.692c0,0.253 -0.107,0.507 -0.282,0.692c-0.186,0.176 -0.439,0.283 -0.692,0.283Z" style="fill:#fff;fill-rule:nonzero;"/><path d="M43.877,52.484c-0.255,0 -0.508,-0.107 -0.693,-0.282c-0.176,-0.186 -0.282,-0.43 -0.282,-0.693c0,-0.253 0.106,-0.507 0.282,-0.692c0.361,-0.361 1.024,-0.361 1.385,0c0.175,0.185 0.283,0.439 0.283,0.692c0,0.263 -0.108,0.507 -0.283,0.693c-0.186,0.175 -0.439,0.282 -0.692,0.282Z" style="fill:#fff;fill-rule:nonzero;"/><path d="M39.479,30.868c-0.254,0 -0.507,-0.107 -0.693,-0.283c-0.175,-0.185 -0.282,-0.438 -0.282,-0.692c0,-0.263 0.107,-0.507 0.282,-0.692c0.361,-0.361 1.025,-0.361 1.375,0c0.186,0.176 0.293,0.429 0.293,0.692c0,0.254 -0.107,0.507 -0.293,0.692c-0.175,0.176 -0.428,0.283 -0.682,0.283Z" style="fill:#fff;fill-rule:nonzero;"/><path d="M43.799,35.149c-0.254,0 -0.508,-0.098 -0.693,-0.283c-0.176,-0.176 -0.282,-0.429 -0.282,-0.692c0,-0.254 0.106,-0.507 0.282,-0.693c0.371,-0.361 1.014,-0.361 1.385,0c0.184,0.186 0.282,0.439 0.282,0.693c0,0.263 -0.098,0.516 -0.282,0.692c-0.186,0.185 -0.43,0.283 -0.692,0.283Z" style="fill:#fff;fill-rule:nonzero;"/><path d="M22.144,30.937c-0.264,0 -0.508,-0.098 -0.692,-0.283c-0.177,-0.176 -0.283,-0.429 -0.283,-0.683c0,-0.263 0.106,-0.516 0.283,-0.692c0.36,-0.361 1.023,-0.361 1.384,0c0.175,0.176 0.283,0.429 0.283,0.692c0,0.254 -0.108,0.507 -0.283,0.683c-0.186,0.185 -0.439,0.283 -0.692,0.283Z" style="fill:#fff;fill-rule:nonzero;"/><path d="M46.177,46.849c-0.253,0 -0.506,-0.098 -0.692,-0.283c-0.175,-0.185 -0.283,-0.429 -0.283,-0.692c0,-0.254 0.108,-0.507 0.283,-0.693c0.37,-0.361 1.014,-0.361 1.384,0c0.186,0.186 0.283,0.439 0.283,0.693c0,0.263 -0.097,0.507 -0.283,0.692c-0.184,0.185 -0.428,0.283 -0.692,0.283Z" style="fill:#fff;fill-rule:nonzero;"/><path d="M33.844,28.558c-0.264,0 -0.508,-0.098 -0.692,-0.283c-0.177,-0.185 -0.283,-0.429 -0.283,-0.692c0,-0.254 0.106,-0.507 0.283,-0.683c0.36,-0.37 1.014,-0.37 1.384,0c0.175,0.176 0.283,0.429 0.283,0.683c0,0.263 -0.108,0.516 -0.283,0.692c-0.186,0.185 -0.439,0.283 -0.692,0.283Z" style="fill:#fff;fill-rule:nonzero;"/><path d="M35.966,52.553c0.416,0 0.83,-0.13 1.183,-0.387c0.625,-0.454 0.932,-1.209 0.801,-1.97l-0.044,-0.257l-2.388,-2.388l0.511,2.974l0.961,-0.165l-1.056,0.234l-4.613,-2.425c-0.284,-0.15 -0.623,-0.15 -0.907,0l-4.613,2.425l0.453,0.863l-0.547,-0.932l0.88,-5.136c0.055,-0.316 -0.05,-0.639 -0.279,-0.863l-3.733,-3.638l-0.681,0.698l0.717,-0.809l5.157,-0.749c0.062,-0.009 0.121,-0.029 0.179,-0.049l-1.701,-1.701l-3.916,0.569c-0.764,0.111 -1.387,0.637 -1.626,1.372c-0.239,0.735 -0.044,1.526 0.51,2.066l3.365,3.279l-0.794,4.631c-0.13,0.762 0.176,1.517 0.802,1.971c0.623,0.453 1.437,0.512 2.12,0.154l4.16,-2.187l4.16,2.187c0.297,0.156 0.619,0.233 0.939,0.233Z" style="fill:#ffcd00;fill-rule:nonzero;"/><path d="M15.27,43.875c-0.254,0 -0.507,-0.108 -0.693,-0.283c-0.175,-0.185 -0.282,-0.439 -0.282,-0.692c0,-0.254 0.107,-0.507 0.282,-0.692c0.361,-0.361 1.014,-0.361 1.375,0c0.186,0.185 0.293,0.438 0.293,0.692c0,0.253 -0.107,0.507 -0.293,0.692c-0.175,0.175 -0.428,0.283 -0.682,0.283Z" style="fill:#ffcd00;fill-rule:nonzero;"/><path d="M30.87,59.475c-0.254,0 -0.507,-0.108 -0.693,-0.283c-0.185,-0.185 -0.282,-0.439 -0.282,-0.692c0,-0.254 0.097,-0.507 0.282,-0.692c0.372,-0.361 1.014,-0.361 1.375,0c0.186,0.185 0.293,0.438 0.293,0.692c0,0.253 -0.107,0.507 -0.293,0.692c-0.175,0.175 -0.428,0.283 -0.682,0.283Z" style="fill:#ffcd00;fill-rule:nonzero;"/><path d="M19.833,54.902c-0.253,0 -0.508,-0.097 -0.683,-0.283c-0.185,-0.185 -0.292,-0.438 -0.292,-0.692c0,-0.253 0.107,-0.507 0.292,-0.682c0.361,-0.361 1.014,-0.371 1.375,0c0.185,0.175 0.283,0.429 0.283,0.682c0,0.254 -0.098,0.507 -0.283,0.692c-0.175,0.186 -0.429,0.283 -0.692,0.283Z" style="fill:#ffcd00;fill-rule:nonzero;"/><path d="M16.46,49.842c-0.264,0 -0.517,-0.098 -0.693,-0.283c-0.185,-0.185 -0.282,-0.439 -0.282,-0.692c0,-0.254 0.097,-0.507 0.282,-0.683c0.361,-0.37 1.014,-0.37 1.375,0c0.185,0.176 0.292,0.429 0.292,0.683c0,0.253 -0.107,0.507 -0.292,0.692c-0.176,0.185 -0.429,0.283 -0.682,0.283Z" style="fill:#ffcd00;fill-rule:nonzero;"/><path d="M36.836,58.285c-0.253,0 -0.506,-0.097 -0.692,-0.282c-0.175,-0.176 -0.283,-0.429 -0.283,-0.693c0,-0.253 0.108,-0.507 0.283,-0.692c0.371,-0.361 1.014,-0.361 1.385,0c0.176,0.185 0.282,0.439 0.282,0.692c0,0.254 -0.106,0.507 -0.282,0.693c-0.185,0.185 -0.438,0.282 -0.693,0.282Z" style="fill:#ffcd00;fill-rule:nonzero;"/><path d="M16.46,37.908c-0.264,0 -0.517,-0.107 -0.693,-0.293c-0.185,-0.175 -0.282,-0.429 -0.282,-0.682c0,-0.263 0.097,-0.517 0.282,-0.692c0.361,-0.361 1.014,-0.361 1.375,0c0.185,0.185 0.292,0.429 0.292,0.692c0,0.253 -0.107,0.507 -0.292,0.682c-0.176,0.186 -0.429,0.293 -0.682,0.293Z" style="fill:#ffcd00;fill-rule:nonzero;"/><path d="M24.893,58.285c-0.254,0 -0.507,-0.097 -0.682,-0.282c-0.186,-0.186 -0.293,-0.429 -0.293,-0.693c0,-0.253 0.107,-0.507 0.293,-0.682c0.36,-0.371 1.014,-0.371 1.374,0c0.185,0.175 0.283,0.429 0.283,0.682c0,0.264 -0.098,0.507 -0.283,0.693c-0.175,0.185 -0.429,0.282 -0.692,0.282Z" style="fill:#ffcd00;fill-rule:nonzero;"/><path d="M15.582,46.985c-0.254,0 -0.507,-0.107 -0.693,-0.283c-0.175,-0.185 -0.282,-0.439 -0.282,-0.692c0,-0.254 0.107,-0.507 0.282,-0.692c0.371,-0.361 1.014,-0.361 1.385,0c0.176,0.185 0.283,0.438 0.283,0.692c0,0.253 -0.107,0.507 -0.283,0.692c-0.185,0.176 -0.439,0.283 -0.692,0.283Z" style="fill:#ffcd00;fill-rule:nonzero;"/><path d="M33.98,59.163c-0.263,0 -0.517,-0.107 -0.692,-0.283c-0.186,-0.185 -0.283,-0.439 -0.283,-0.692c0,-0.254 0.097,-0.507 0.283,-0.693c0.361,-0.36 1.014,-0.36 1.375,0c0.184,0.186 0.292,0.439 0.292,0.693c0,0.253 -0.108,0.507 -0.292,0.692c-0.175,0.176 -0.43,0.283 -0.683,0.283Z" style="fill:#ffcd00;fill-rule:nonzero;"/><path d="M17.863,35.266c-0.263,0 -0.516,-0.108 -0.692,-0.283c-0.185,-0.185 -0.283,-0.439 -0.283,-0.692c0,-0.264 0.098,-0.507 0.283,-0.693c0.361,-0.36 1.014,-0.36 1.375,0c0.185,0.186 0.292,0.439 0.292,0.693c0,0.253 -0.107,0.507 -0.292,0.692c-0.176,0.175 -0.429,0.283 -0.683,0.283Z" style="fill:#ffcd00;fill-rule:nonzero;"/><path d="M22.261,56.881c-0.264,0 -0.517,-0.107 -0.692,-0.282c-0.186,-0.186 -0.283,-0.429 -0.283,-0.693c0,-0.253 0.097,-0.507 0.283,-0.682c0.36,-0.371 1.014,-0.371 1.374,0c0.185,0.175 0.293,0.429 0.293,0.682c0,0.264 -0.108,0.507 -0.293,0.693c-0.175,0.175 -0.429,0.282 -0.682,0.282Z" style="fill:#ffcd00;fill-rule:nonzero;"/><path d="M17.932,52.601c-0.254,0 -0.507,-0.107 -0.693,-0.292c-0.175,-0.176 -0.282,-0.429 -0.282,-0.683c0,-0.263 0.107,-0.507 0.282,-0.692c0.371,-0.361 1.024,-0.361 1.385,0c0.185,0.185 0.282,0.429 0.282,0.692c0,0.254 -0.097,0.507 -0.282,0.683c-0.185,0.185 -0.429,0.292 -0.692,0.292Z" style="fill:#ffcd00;fill-rule:nonzero;"/><path d="M39.596,56.803c-0.263,0 -0.516,-0.097 -0.692,-0.282c-0.185,-0.176 -0.283,-0.429 -0.283,-0.693c0,-0.253 0.098,-0.507 0.283,-0.682c0.351,-0.361 1.014,-0.371 1.374,0c0.186,0.175 0.293,0.429 0.293,0.682c0,0.264 -0.107,0.517 -0.293,0.693c-0.175,0.185 -0.428,0.282 -0.682,0.282Z" style="fill:#ffcd00;fill-rule:nonzero;"/><path d="M15.552,40.901c-0.253,0 -0.506,-0.107 -0.692,-0.292c-0.175,-0.176 -0.283,-0.429 -0.283,-0.683c0,-0.263 0.108,-0.507 0.283,-0.692c0.361,-0.361 1.024,-0.361 1.385,0c0.185,0.185 0.282,0.429 0.282,0.692c0,0.254 -0.097,0.507 -0.282,0.683c-0.185,0.185 -0.439,0.292 -0.693,0.292Z" style="fill:#ffcd00;fill-rule:nonzero;"/><path d="M27.886,59.192c-0.253,0 -0.506,-0.107 -0.682,-0.292c-0.185,-0.176 -0.283,-0.429 -0.283,-0.683c0,-0.263 0.098,-0.517 0.283,-0.692c0.36,-0.361 1.014,-0.361 1.374,0c0.186,0.175 0.283,0.429 0.283,0.692c0,0.254 -0.097,0.507 -0.283,0.683c-0.175,0.185 -0.428,0.292 -0.692,0.292Z" style="fill:#ffcd00;fill-rule:nonzero;"/><path d="M19.149,31.182c-0.185,0.175 -0.291,0.428 -0.291,0.691c0,0.253 0.107,0.507 0.292,0.682c0.175,0.185 0.43,0.293 0.683,0.293c0.262,0 0.505,-0.108 0.69,-0.292l-1.374,-1.374Z" style="fill:#ffcd00;fill-rule:nonzero;"/><path d="M41.897,54.902c0.253,0 0.505,-0.097 0.691,-0.282l-1.379,-1.378c-0.001,0.001 -0.003,0.001 -0.004,0.003c-0.175,0.175 -0.283,0.429 -0.283,0.682c0,0.263 0.108,0.517 0.283,0.692c0.185,0.186 0.439,0.283 0.692,0.283Z" style="fill:#ffcd00;fill-rule:nonzero;"/></g></svg>