<?xml version="1.0" encoding="UTF-8" standalone="no"?><!DOCTYPE svg PUBLIC "-//W3C//DTD SVG 1.1//EN" "http://www.w3.org/Graphics/SVG/1.1/DTD/svg11.dtd"><svg width="100%" height="100%" viewBox="0 0 508 508" version="1.1" xmlns="http://www.w3.org/2000/svg" xmlns:xlink="http://www.w3.org/1999/xlink" xml:space="preserve" xmlns:serif="http://www.serif.com/" style="fill-rule:evenodd;clip-rule:evenodd;stroke-linejoin:round;stroke-miterlimit:1.41421;"><circle cx="254" cy="254" r="209.391" style="fill:#2c9984;"/><g><path d="M174.796,209.391c3.641,-9.104 2.276,-17.753 -2.276,-19.574c-0.911,-0.455 -2.276,-0.455 -3.642,0c-5.007,1.366 -10.469,0.911 -15.477,-0.91l-16.842,-6.373l-8.649,22.305l16.843,6.372c5.007,1.821 9.559,5.008 12.29,9.56c0.455,0.91 1.366,1.82 2.731,2.276c5.007,1.365 11.38,-4.552 15.022,-13.656Z" style="fill:#fff;fill-rule:nonzero;"/><path d="M174.796,297.699c-3.642,-9.104 -10.015,-15.022 -14.567,-13.201c-0.91,0.455 -1.82,1.366 -2.731,2.276c-2.731,4.552 -7.283,7.283 -12.29,9.559l-16.842,6.373l8.193,22.305l16.842,-6.373c5.008,-1.821 10.47,-2.731 15.477,-0.91c1.366,0.455 2.276,0.455 3.642,0c4.552,-2.276 5.917,-10.925 2.276,-20.029Z" style="fill:#fff;fill-rule:nonzero;"/></g><rect x="4.097" y="198.466" width="55.989" height="105.606" style="fill:#f9b54c;"/><g><path d="M159.774,184.81l-14.111,35.505l-0.455,0c-1.366,-0.455 -2.731,-0.91 -4.097,-1.365c0,0 -48.251,-19.118 -48.706,-19.118c-1.821,0 -10.925,-4.552 -10.925,7.738c0,0 -1.365,24.581 -2.276,34.595l-56.899,0c1.82,-17.298 11.835,-66.004 55.079,-77.839c6.827,-1.821 13.655,-1.821 20.483,-0.91c1.821,0.455 56.9,19.118 56.9,19.118c1.821,0.91 3.642,1.366 5.007,2.276Z" style="fill:#2b3b4e;fill-rule:nonzero;"/><path d="M155.222,325.011c0,0 -55.079,19.118 -56.899,19.118c-6.828,0.91 -13.656,0.91 -20.484,-0.91c-43.699,-11.835 -53.714,-60.542 -55.534,-77.839l57.354,0c0.456,10.014 2.276,34.595 2.276,34.595c0,12.29 9.104,7.738 10.925,7.738c0.455,0 44.154,-17.297 48.251,-18.663l14.111,35.961Z" style="fill:#2b3b4e;fill-rule:nonzero;"/></g><path d="M15.932,202.563l0,96.957c0,8.648 -7.283,15.932 -15.932,15.932l0,-128.821c8.649,0 15.932,7.283 15.932,15.932Z" style="fill:#ffd05b;fill-rule:nonzero;"/><path d="M88.763,273.118l-38.236,22.305l-38.237,-22.305l0,-44.154l38.237,-21.849l38.236,21.849l0,44.154Z" style="fill:#324a5e;fill-rule:nonzero;"/><g><path d="M333.204,209.391c-3.641,-9.104 -2.276,-17.753 2.276,-19.574c0.911,-0.455 2.276,-0.455 3.642,0c5.007,1.366 10.469,0.911 15.477,-0.91l16.842,-6.373l8.649,22.305l-16.843,6.372c-5.007,1.821 -9.559,5.008 -12.29,9.56c-0.455,0.91 -1.366,1.82 -2.731,2.276c-5.007,1.365 -11.38,-4.552 -15.022,-13.656Z" style="fill:#fff;fill-rule:nonzero;"/><path d="M333.204,297.699c3.642,-9.104 10.015,-15.022 14.567,-13.201c0.91,0.455 1.82,1.366 2.731,2.276c2.731,4.552 7.283,7.283 12.29,9.559l16.842,6.373l-8.193,22.305l-17.298,-6.828c-5.007,-1.821 -10.469,-2.731 -15.476,-0.911c-1.366,0.456 -2.276,0.456 -3.642,0c-4.097,-1.82 -5.462,-10.469 -1.821,-19.573Z" style="fill:#fff;fill-rule:nonzero;"/></g><rect x="447.914" y="198.466" width="55.989" height="105.606" style="fill:#f9b54c;"/><g><path d="M348.226,184.81l14.111,35.505l0.455,0c1.366,-0.455 2.731,-0.91 4.097,-1.365c0,0 48.251,-19.118 48.706,-19.118c1.821,0 10.925,-4.552 10.925,7.738c0,0 1.365,24.581 2.276,34.595l57.355,0c-1.821,-17.298 -11.836,-66.004 -55.079,-77.839c-6.828,-1.821 -13.656,-1.821 -20.484,-0.91c-1.821,0.455 -56.9,19.118 -56.9,19.118c-2.276,0.91 -4.097,1.366 -5.462,2.276Z" style="fill:#ff7058;fill-rule:nonzero;"/><path d="M352.778,325.011c0,0 55.079,19.118 56.899,19.118c6.828,0.91 13.656,0.91 20.484,-0.91c43.699,-12.291 53.258,-60.997 55.079,-77.839l-57.355,0c-0.455,10.014 -2.276,34.595 -2.276,34.595c0,12.29 -9.104,7.738 -10.924,7.738c-0.456,0 -44.155,-17.297 -48.251,-18.663l-13.656,35.961Z" style="fill:#ff7058;fill-rule:nonzero;"/></g><path d="M492.068,202.563l0,96.957c0,8.648 7.283,15.932 15.932,15.932l0,-128.821c-8.649,0 -15.932,7.283 -15.932,15.932Z" style="fill:#ffd05b;fill-rule:nonzero;"/><path d="M419.237,273.118l38.236,22.305l38.237,-22.305l0,-44.154l-38.237,-21.849l-38.236,21.849l0,44.154Z" style="fill:#324a5e;fill-rule:nonzero;"/><g><path d="M298.609,174.796c9.104,3.641 17.753,2.276 19.574,-2.276c0.455,-0.911 0.455,-2.276 0,-3.642c-1.366,-5.007 -0.911,-10.469 0.91,-15.477l6.373,-16.842l-22.305,-8.649l-6.372,16.843c-1.821,5.007 -5.008,9.559 -9.56,12.29c-0.91,0.455 -1.82,1.366 -2.276,2.731c-1.365,5.007 4.552,11.38 13.656,15.022Z" style="fill:#fff;fill-rule:nonzero;"/><path d="M210.301,174.796c9.104,-3.642 15.022,-10.015 13.201,-14.567c-0.455,-0.91 -1.366,-1.82 -2.276,-2.731c-4.552,-2.731 -7.283,-7.283 -9.559,-12.29l-6.373,-16.842l-22.305,8.193l6.373,16.842c1.821,5.008 2.731,10.47 0.91,15.477c-0.455,1.366 -0.455,2.276 0,3.642c2.276,4.552 10.925,5.917 20.029,2.276Z" style="fill:#fff;fill-rule:nonzero;"/></g><rect x="203.928" y="4.097" width="105.606" height="55.989" style="fill:#f9b54c;"/><g><path d="M323.19,159.774l-35.505,-14.111l0,-0.455c0.455,-1.366 0.91,-2.731 1.365,-4.097c0,0 19.118,-48.251 19.118,-48.706c0,-1.821 4.552,-10.925 -7.738,-10.925c0,0 -24.581,-1.365 -34.595,-2.276l0,-56.899c17.298,1.82 66.004,11.835 77.839,55.079c1.821,6.827 1.821,13.655 0.91,20.483c-0.455,1.821 -19.118,56.9 -19.118,56.9c-0.91,1.821 -1.366,3.642 -2.276,5.007Z" style="fill:#e6e9ee;fill-rule:nonzero;"/><path d="M182.989,155.222c0,0 -19.118,-55.079 -19.118,-56.899c-0.91,-6.828 -0.91,-13.656 0.91,-20.484c12.291,-43.699 60.997,-53.258 77.839,-55.079l0,57.355c-10.014,0.455 -34.595,2.276 -34.595,2.276c-12.29,0 -7.738,9.104 -7.738,10.924c0,0.456 17.297,44.155 18.663,48.251l-35.961,13.656Z" style="fill:#e6e9ee;fill-rule:nonzero;"/></g><path d="M305.437,15.932l-96.957,0c-8.648,0 -15.932,-7.283 -15.932,-15.932l128.366,0c0.455,8.649 -6.828,15.932 -15.477,15.932Z" style="fill:#ffd05b;fill-rule:nonzero;"/><path d="M234.882,88.763l-22.305,-38.236l22.305,-38.237l44.154,0l21.849,38.237l-21.849,38.236l-44.154,0Z" style="fill:#324a5e;fill-rule:nonzero;"/><g><path d="M298.609,333.204c9.104,-3.641 17.753,-2.276 19.574,2.276c0.455,0.911 0.455,2.276 0,3.642c-1.366,5.007 -0.911,10.469 0.91,15.477l6.373,16.842l-22.305,8.649l-6.372,-16.843c-1.821,-5.007 -5.008,-9.559 -9.56,-12.29c-0.91,-0.455 -1.82,-1.366 -2.276,-2.731c-1.365,-5.007 4.552,-11.38 13.656,-15.022Z" style="fill:#fff;fill-rule:nonzero;"/><path d="M210.301,333.204c9.104,3.642 15.022,10.015 13.201,14.567c-0.455,0.91 -1.366,1.82 -2.276,2.731c-4.552,2.731 -7.283,7.283 -9.559,12.29l-6.373,16.842l-22.305,-8.193l6.373,-16.842c1.821,-5.008 2.731,-10.47 0.91,-15.477c-0.455,-1.366 -0.455,-2.276 0,-3.642c2.276,-4.552 10.925,-5.917 20.029,-2.276Z" style="fill:#fff;fill-rule:nonzero;"/></g><rect x="203.928" y="447.914" width="105.606" height="55.989" style="fill:#f9b54c;"/><g><path d="M323.19,348.226l-35.505,14.111l0,0.455c0.455,1.366 0.91,2.731 1.365,4.097c0,0 19.118,48.251 19.118,48.706c0,1.821 4.552,10.925 -7.738,10.925c0,0 -24.581,1.365 -34.595,2.276l0,57.355c17.298,-1.821 66.004,-11.836 77.839,-55.079c1.821,-6.828 1.821,-13.656 0.91,-20.484c-0.455,-1.821 -19.118,-56.9 -19.118,-56.9c-0.91,-2.276 -1.366,-4.097 -2.276,-5.462Z" style="fill:#2b3b4e;fill-rule:nonzero;"/><path d="M182.989,352.778c0,0 -19.118,55.079 -19.118,56.899c-0.91,6.828 -0.91,13.656 0.91,20.484c12.291,43.699 60.997,53.258 77.839,55.079l0,-57.355c-10.014,-0.455 -34.595,-2.276 -34.595,-2.276c-12.29,0 -7.738,-9.104 -7.738,-10.924c0,-0.456 17.297,-44.155 18.663,-48.251l-35.961,-13.656Z" style="fill:#2b3b4e;fill-rule:nonzero;"/></g><path d="M305.437,492.068l-96.957,0c-8.648,0 -15.932,7.283 -15.932,15.932l128.366,0c0.455,-8.649 -6.828,-15.932 -15.477,-15.932Z" style="fill:#ffd05b;fill-rule:nonzero;"/><path d="M234.882,419.237l-22.305,38.236l22.305,38.237l44.154,0l21.849,-38.237l-21.849,-38.236l-44.154,0Z" style="fill:#324a5e;fill-rule:nonzero;"/></svg>