<?xml version="1.0" encoding="UTF-8" standalone="no"?><!DOCTYPE svg PUBLIC "-//W3C//DTD SVG 1.1//EN" "http://www.w3.org/Graphics/SVG/1.1/DTD/svg11.dtd"><svg width="100%" height="100%" viewBox="0 0 178 48" version="1.1" xmlns="http://www.w3.org/2000/svg" xmlns:xlink="http://www.w3.org/1999/xlink" xml:space="preserve" xmlns:serif="http://www.serif.com/" style="fill-rule:evenodd;clip-rule:evenodd;stroke-linejoin:round;stroke-miterlimit:1.41421;"><g><path id="path22" d="M89.889,0c-0.124,0.002 -0.248,0.031 -0.359,0.096c-0.219,0.129 -0.358,0.365 -0.358,0.62l0,18.259c0,0.18 -0.083,0.34 -0.238,0.43c-0.156,0.09 -0.346,0.09 -0.501,0l-2.984,-1.718c-0.445,-0.257 -0.988,-0.257 -1.432,0l-11.91,6.874c-0.446,0.257 -0.717,0.751 -0.717,1.265l0,13.748c0,0.513 0.272,0.984 0.717,1.241l11.91,6.874c0.445,0.257 0.987,0.257 1.432,0l11.91,-6.874c0.445,-0.257 0.716,-0.728 0.716,-1.241l0,-34.275c0,-0.522 -0.284,-1.011 -0.74,-1.265l-7.088,-3.962c-0.112,-0.062 -0.235,-0.073 -0.358,-0.072l0,0Zm-76.618,17.161c-0.227,0.01 -0.441,0.049 -0.645,0.168l-11.91,6.874c-0.444,0.256 -0.716,0.724 -0.716,1.241l0.024,18.45c0,0.257 0.132,0.495 0.358,0.621c0.221,0.132 0.495,0.132 0.716,0l7.065,-4.058c0.447,-0.266 0.74,-0.728 0.74,-1.241l0,-8.617c0,-0.514 0.27,-0.985 0.716,-1.241l3.007,-1.742c0.225,-0.13 0.466,-0.191 0.716,-0.191c0.246,0 0.498,0.061 0.716,0.191l3.008,1.742c0.446,0.256 0.716,0.727 0.716,1.241l0,8.617c0,0.513 0.295,0.978 0.74,1.241l7.065,4.058c0.222,0.132 0.496,0.132 0.716,0c0.219,-0.126 0.358,-0.364 0.358,-0.621l0.024,-18.45c0,-0.517 -0.269,-0.985 -0.716,-1.241l-11.911,-6.874c-0.201,-0.119 -0.415,-0.158 -0.644,-0.168l-0.143,0l0,0Zm107.026,0.168c-0.249,-0.001 -0.493,0.062 -0.716,0.19l-11.911,6.875c-0.444,0.257 -0.716,0.727 -0.716,1.241l0,13.748c0,0.517 0.292,0.986 0.74,1.241l11.815,6.731c0.437,0.249 0.969,0.268 1.408,0.024l7.161,-3.986c0.227,-0.126 0.381,-0.362 0.382,-0.621c0.001,-0.259 -0.134,-0.492 -0.358,-0.621l-11.982,-6.874c-0.224,-0.128 -0.382,-0.387 -0.382,-0.644l0,-4.296c0,-0.257 0.159,-0.493 0.382,-0.621l3.723,-2.148c0.222,-0.128 0.494,-0.128 0.716,0l3.724,2.148c0.222,0.128 0.358,0.364 0.358,0.621l0,3.389c0,0.257 0.136,0.492 0.358,0.62c0.223,0.129 0.494,0.13 0.716,0l7.137,-4.153c0.443,-0.257 0.716,-0.728 0.716,-1.241l0,-3.317c0,-0.513 -0.272,-0.984 -0.716,-1.242l-11.839,-6.874c-0.223,-0.129 -0.467,-0.19 -0.716,-0.191l0,0.001Zm-35.612,10.263c0.062,0 0.135,0.015 0.191,0.047l4.082,2.363c0.11,0.064 0.191,0.183 0.191,0.311l0,4.726c0,0.128 -0.08,0.246 -0.191,0.31l-4.082,2.363c-0.111,0.063 -0.247,0.063 -0.358,0l-4.081,-2.363c-0.112,-0.064 -0.191,-0.182 -0.191,-0.31l0,-4.726c0,-0.128 0.08,-0.246 0.191,-0.311l4.081,-2.362c0.056,-0.032 0.105,-0.048 0.167,-0.048l0,0Z" style="fill:#404137;"/><path id="path28" d="M155.98,16.994c-0.413,0 -0.814,0.086 -1.169,0.287l-11.242,6.492c-0.728,0.419 -1.17,1.211 -1.17,2.053l0,12.96c0,0.842 0.442,1.633 1.17,2.053l2.935,1.695c1.427,0.703 1.953,0.692 2.602,0.692c2.112,0 3.318,-1.282 3.318,-3.509l0,-12.793c0,-0.181 -0.157,-0.311 -0.334,-0.311l-1.409,0c-0.18,0 -0.334,0.13 -0.334,0.311l0,12.793c0,0.987 -1.028,1.98 -2.697,1.146l-3.055,-1.79c-0.108,-0.059 -0.191,-0.163 -0.191,-0.287l0,-12.96c0,-0.123 0.082,-0.248 0.191,-0.311l11.218,-6.468c0.105,-0.06 0.23,-0.06 0.334,0l11.218,6.468c0.107,0.065 0.191,0.184 0.191,0.311l0,12.96c0,0.124 -0.062,0.251 -0.167,0.311l-11.242,6.468c-0.096,0.057 -0.229,0.057 -0.334,0l-2.888,-1.719c-0.086,-0.05 -0.203,-0.046 -0.286,0c-0.798,0.452 -0.947,0.505 -1.695,0.764c-0.184,0.064 -0.464,0.164 0.095,0.478l3.772,2.219c0.359,0.208 0.759,0.311 1.169,0.311c0.416,0 0.811,-0.103 1.17,-0.311l11.242,-6.468c0.727,-0.423 1.169,-1.211 1.169,-2.053l0,-12.96c0,-0.842 -0.442,-1.632 -1.169,-2.053l-11.242,-6.492c-0.353,-0.201 -0.757,-0.287 -1.17,-0.287l0,0Zm-106.93,0.263c-0.249,0 -0.494,0.063 -0.716,0.191l-11.911,6.85c-0.445,0.257 -0.716,0.752 -0.716,1.265l0,13.748c0,0.514 0.271,0.984 0.716,1.241l11.911,6.875c0.445,0.257 0.986,0.257 1.432,0l11.91,-6.875c0.445,-0.257 0.716,-0.727 0.716,-1.241l0,-13.748c0,-0.514 -0.271,-1.008 -0.716,-1.265l-11.91,-6.85c-0.223,-0.128 -0.468,-0.191 -0.716,-0.191Zm123.614,0.072l0,0.334l0.931,0l0,2.458l0.382,0l0,-2.458l0.955,0l0,-0.334l-2.268,0Zm2.602,0l0,2.792l0.358,0l0,-1.647c0,-0.067 0.003,-0.171 0,-0.31c-0.005,-0.142 0,-0.265 0,-0.334l0,-0.072l0.788,2.363l0.381,0l0.812,-2.363c0,0.15 -0.02,0.296 -0.024,0.43c-0.001,0.13 0,0.228 0,0.286l0,1.647l0.358,0l0,-2.793l-0.525,0l-0.811,2.363l-0.788,-2.363l-0.549,0l0,0.001Zm-16.278,8.926c-3.202,0 -5.108,1.363 -5.108,3.628c0,2.458 1.892,3.134 4.964,3.438c3.676,0.359 3.963,0.899 3.963,1.623c0,1.255 -1.001,1.79 -3.366,1.79c-2.971,0 -3.624,-0.742 -3.843,-2.22c-0.025,-0.159 -0.148,-0.286 -0.31,-0.286l-1.456,0c-0.179,0 -0.334,0.154 -0.334,0.334c0,1.892 1.029,4.129 5.943,4.129c3.557,0 5.609,-1.396 5.609,-3.843c0,-2.425 -1.657,-3.076 -5.108,-3.532c-3.486,-0.462 -3.819,-0.688 -3.819,-1.504c0,-0.674 0.282,-1.575 2.865,-1.575c2.306,0 3.159,0.497 3.508,2.052c0.031,0.146 0.16,0.263 0.311,0.263l1.456,0c0.089,0 0.176,-0.055 0.238,-0.12c0.061,-0.068 0.104,-0.146 0.096,-0.238c-0.226,-2.679 -2.012,-3.939 -5.609,-3.939l0,0Zm-38.715,3.271c-0.048,0 -0.1,0 -0.143,0.023l-2.292,1.337c-0.085,0.049 -0.143,0.14 -0.143,0.238l0,2.626c0,0.099 0.058,0.189 0.143,0.239l2.292,1.312c0.086,0.05 0.177,0.05 0.262,0l2.292,-1.312c0.085,-0.049 0.143,-0.14 0.143,-0.239l0,-2.626c0,-0.098 -0.058,-0.189 -0.143,-0.238l-2.292,-1.337c-0.042,-0.025 -0.071,-0.023 -0.119,-0.023Z" style="fill:#83cd29;"/></g></svg>