<svg height="512pt" viewBox="0 0 512 512" width="512pt" xmlns="http://www.w3.org/2000/svg"><path d="m241 195.800781h30v210h-30zm0 0" fill="#b6c4cf"/><path d="m256 195.800781h15v210h-15zm0 0" fill="#9facba"/><path d="m340.902344 150.800781h35.097656v-60h-35.097656c-3.003906-6.300781-5.101563-12.296875-11.101563-20.699219l-5.398437-7.800781 17.699218-31.296875-52.203124-30.99999975-17.398438 30.99999975c-7.800781-.601562-11.402344-1.199218-16.5-1.199218-5.101562 0-8.699219.597656-16.5 1.199218l-17.398438-30.99999975-52.203124 30.99999975 17.699218 31.296875-5.398437 7.800781c-5.699219 8.101563-8.097657 14.101563-11.101563 20.699219h-35.097656v60h35.097656l3.902344 8.402344c4.5 9.300781 8.699219 14.097656 12.597656 20.097656l-17.699218 30.300781 52.199218 30 17.402344-30c7.800781.597657 11.398438 1.199219 16.5 1.199219s8.699219-.601562 16.5-1.199219l17.402344 30 52.199218-30-17.699218-30.300781c3.898437-5.699219 8.097656-10.796875 12.597656-20.097656zm-84.902344 15c-24.902344 0-45-20.097656-45-45 0-24.898437 20.097656-45 45-45s45 20.101563 45 45c0 24.902344-20.097656 45-45 45zm0 0" fill="#e63950"/><path d="m337 159.203125c-4.5 9.300781-8.699219 14.398437-12.597656 20.097656l17.699218 30.300781-52.203124 30-17.398438-30c-7.800781.597657-11.402344 1.199219-16.5 1.199219v-45c24.898438 0 45-20.097656 45-45 0-24.902343-20.101562-45-45-45v-46c5.097656 0 8.699219.601563 16.5 1.199219l17.398438-31 52.203124 31-17.699218 31.300781 5.398437 7.800781c6 8.398438 8.097657 14.398438 11.101563 20.699219h35.097656v60h-35.097656zm0 0" fill="#cc2e43"/><path d="m451 315.800781v90h-30v-60h-330v60h-30v-90zm0 0" fill="#b6c4cf"/><path d="m451 315.800781v90h-30v-60h-165v-30zm0 0" fill="#9facba"/><path d="m151 511.800781h-151v-121h151zm0 0" fill="#fdbf00"/><path d="m181 390.800781v121h150v-121zm0 0" fill="#fdbf00"/><g fill="#ff9f00"><path d="m512 511.800781h-151v-121h151zm0 0"/><path d="m256 390.800781h75v121h-75zm0 0"/></g></svg>