<?xml version="1.0" encoding="UTF-8" standalone="no"?>
<!DOCTYPE svg PUBLIC "-//W3C//DTD SVG 1.1//EN" "http://www.w3.org/Graphics/SVG/1.1/DTD/svg11.dtd">
<svg width="100%" height="100%" viewBox="0 0 151 193" version="1.1" xmlns="http://www.w3.org/2000/svg" xmlns:xlink="http://www.w3.org/1999/xlink" xml:space="preserve" xmlns:serif="http://www.serif.com/" style="fill-rule:evenodd;clip-rule:evenodd;stroke-linejoin:round;stroke-miterlimit:1.41421;">
    <g transform="matrix(1,0,0,1,-724.864,-219.14)">
        <g transform="matrix(0.375679,0,0,0.375679,703.826,219.14)">
            <path d="M416,40L96,40C73.945,40 56,57.945 56,80L56,472C56,494.055 73.945,512 96,512L416,512C438.055,512 456,494.055 456,472L456,80C456,57.945 438.055,40 416,40Z" style="fill:rgb(153,100,89);fill-rule:nonzero;"/>
            <path d="M415.6,72C420.239,72 424,75.728 424,80.327L424,471.674C424,476.273 420.239,480.001 415.6,480.001L96.4,480.001C91.761,480.001 88,476.273 88,471.674L88,80.326C88,75.728 91.761,72 96.4,72L415.6,72Z" style="fill:white;fill-rule:nonzero;"/>
            <path d="M200,216L152,216C143.18,216 136,208.82 136,200L136,152C136,143.18 143.18,136 152,136L200,136C208.82,136 216,143.18 216,152L216,200C216,208.82 208.82,216 200,216ZM152,152L152,200L200.016,200L200,152L152,152Z" style="fill:rgb(180,182,188);fill-rule:nonzero;"/>
            <path d="M264,160L240,160C235.578,160 232,156.422 232,152C232,147.578 235.578,144 240,144L264,144C268.422,144 272,147.578 272,152C272,156.422 268.422,160 264,160Z" style="fill:rgb(92,84,106);fill-rule:nonzero;"/>
            <path d="M360,192L240,192C235.578,192 232,188.422 232,184C232,179.578 235.578,176 240,176L360,176C364.422,176 368,179.578 368,184C368,188.422 364.422,192 360,192Z" style="fill:rgb(134,132,145);fill-rule:nonzero;"/>
            <path d="M320,272L240,272C235.578,272 232,268.422 232,264C232,259.578 235.578,256 240,256L320,256C324.422,256 328,259.578 328,264C328,268.422 324.422,272 320,272Z" style="fill:rgb(92,84,106);fill-rule:nonzero;"/>
            <path d="M360,304L240,304C235.578,304 232,300.422 232,296C232,291.578 235.578,288 240,288L360,288C364.422,288 368,291.578 368,296C368,300.422 364.422,304 360,304Z" style="fill:rgb(134,132,145);fill-rule:nonzero;"/>
            <path d="M272,376L240,376C235.578,376 232,372.422 232,368C232,363.578 235.578,360 240,360L272,360C276.422,360 280,363.578 280,368C280,372.422 276.422,376 272,376Z" style="fill:rgb(92,84,106);fill-rule:nonzero;"/>
            <path d="M360,408L240,408C235.578,408 232,404.422 232,400C232,395.578 235.578,392 240,392L360,392C364.422,392 368,395.578 368,400C368,404.422 364.422,408 360,408Z" style="fill:rgb(134,132,145);fill-rule:nonzero;"/>
            <path d="M288,40C283.578,40 280,36.422 280,32L280,24C280,19.586 276.414,16 272,16L240,16C235.586,16 232,19.586 232,24L232,32C232,36.422 228.422,40 224,40C219.578,40 216,36.422 216,32L216,24C216,10.766 226.766,0 240,0L272,0C285.234,0 296,10.766 296,24L296,32C296,36.422 292.422,40 288,40Z" style="fill:rgb(134,132,145);fill-rule:nonzero;"/>
            <path d="M344,24L168,24C163.582,24 160,27.582 160,32L160,56C160,78.091 177.909,96 200,96L312,96C334.091,96 352,78.091 352,56L352,32C352,27.582 348.418,24 344,24Z" style="fill:rgb(180,182,188);fill-rule:nonzero;"/>
            <path d="M200,320L152,320C143.18,320 136,312.82 136,304L136,256C136,247.18 143.18,240 152,240L200,240C208.82,240 216,247.18 216,256L216,304C216,312.82 208.82,320 200,320ZM152,256L152,304L200.016,304L200,256L152,256Z" style="fill:rgb(180,182,188);fill-rule:nonzero;"/>
            <path d="M200,424L152,424C143.18,424 136,416.82 136,408L136,360C136,351.18 143.18,344 152,344L200,344C208.82,344 216,351.18 216,360L216,408C216,416.82 208.82,424 200,424ZM152,360L152,408L200.016,408L200,360L152,360Z" style="fill:rgb(180,182,188);fill-rule:nonzero;"/>
            <path d="M184,296C181.953,296 179.906,295.219 178.344,293.656L162.344,277.656C159.219,274.531 159.219,269.468 162.344,266.343C165.469,263.218 170.532,263.218 173.657,266.343L184,276.687L218.344,242.343C221.469,239.218 226.532,239.218 229.657,242.343C232.782,245.468 232.782,250.53 229.657,253.655L189.657,293.655C188.094,295.219 186.047,296 184,296Z" style="fill:rgb(255,79,25);fill-rule:nonzero;"/>
        </g>
    </g>
</svg>
