<?xml version="1.0" encoding="UTF-8" standalone="no"?>
<!DOCTYPE svg PUBLIC "-//W3C//DTD SVG 1.1//EN" "http://www.w3.org/Graphics/SVG/1.1/DTD/svg11.dtd">
<svg width="100%" height="100%" viewBox="0 0 85 30" version="1.1" xmlns="http://www.w3.org/2000/svg" xmlns:xlink="http://www.w3.org/1999/xlink" xml:space="preserve" xmlns:serif="http://www.serif.com/" style="fill-rule:evenodd;clip-rule:evenodd;stroke-linejoin:round;stroke-miterlimit:1.41421;">
    <g>
        <g transform="matrix(1,0,0,1,0.294,0)">
            <path d="M76.67,0.001C76.699,0.001 76.728,0.001 76.758,0.001C77.67,0.001 78.49,0.111 79.224,0.31C81.919,0.997 83.365,2.728 84.15,4.462C84.337,4.839 84.495,5.218 84.626,5.591C84.679,5.749 84.706,5.882 84.706,6.041C84.706,6.597 84.229,6.995 83.779,7.1C83.593,7.154 83.407,7.18 83.248,7.18C82.746,7.18 82.268,6.942 82.057,6.359C82.011,6.218 81.961,6.077 81.908,5.938C81.875,5.888 81.845,5.834 81.818,5.776C81.596,5.243 81.332,4.736 81.002,4.281C80.131,3.139 78.802,2.318 76.795,2.288L76.749,2.287L76.748,2.287L76.678,2.287C76.634,2.287 76.59,2.287 76.546,2.288C72.647,2.361 70.081,5.673 70.081,10.73C70.081,15.787 72.647,19.1 76.546,19.173C76.59,19.174 76.634,19.174 76.678,19.174L76.749,19.174L76.795,19.173C78.802,19.142 80.131,18.322 81.002,17.179C81.332,16.725 81.596,16.218 81.818,15.685C81.845,15.627 81.875,15.573 81.908,15.523C81.961,15.384 82.011,15.243 82.057,15.102C82.268,14.519 82.746,14.281 83.248,14.281C83.407,14.281 83.593,14.307 83.779,14.361C84.229,14.466 84.706,14.863 84.706,15.42C84.706,15.579 84.679,15.712 84.626,15.87C84.495,16.242 84.337,16.622 84.15,16.999C83.365,18.733 81.919,20.464 79.224,21.151C78.49,21.35 77.67,21.46 76.758,21.46L76.573,21.46C74.116,21.46 72.033,20.613 70.479,19.104C69.099,17.778 68.142,15.934 67.704,13.674C67.524,12.763 67.432,11.788 67.432,10.757L67.432,10.73L67.432,10.704C67.432,9.673 67.524,8.698 67.704,7.787C68.142,5.527 69.099,3.683 70.479,2.357C72.033,0.848 74.116,0.001 76.573,0.001L76.67,0.001Z" style="fill:white;"/>
        </g>
        <path d="M9.22,21.46C13.3,21.46 15.658,19.256 15.658,15.51C15.658,12.535 14.281,10.716 11.578,10.138C13.857,9.367 14.943,7.824 14.943,5.207C14.943,1.901 12.744,0 8.928,0L2.676,0C0.795,0 0.001,0.854 0.001,2.975L0.001,18.513C0.001,20.606 0.795,21.46 2.676,21.46L9.22,21.46ZM3.178,9.064C2.784,9.064 2.465,8.745 2.465,8.35C2.465,6.782 2.465,3.168 2.465,3.168C2.465,2.617 2.729,2.287 3.232,2.287L8.743,2.287C11.155,2.287 12.399,3.388 12.399,5.537C12.399,7.742 11.075,9.064 8.796,9.064C8.796,9.064 4.833,9.064 3.178,9.064ZM2.465,12.036C2.465,11.642 2.784,11.323 3.178,11.323C4.848,11.323 8.876,11.323 8.876,11.323C11.578,11.323 13.035,12.673 13.035,15.262C13.035,17.796 11.605,19.174 8.928,19.174L3.312,19.174C2.729,19.174 2.465,18.871 2.465,18.265C2.465,18.265 2.465,13.807 2.465,12.036Z" style="fill:white;fill-rule:nonzero;"/>
        <g id="new.2e..-A" transform="matrix(1,0,0,1,0.0735,0)">
            <path d="M35.027,10.731L33.658,13.998C33.658,13.998 35.75,19.099 36.468,20.851C36.613,21.204 36.956,21.434 37.337,21.434C37.537,21.434 37.708,21.407 37.907,21.353C38.477,21.217 38.905,20.757 38.905,20.242C38.905,20.079 38.876,19.944 38.819,19.781L35.027,10.731ZM21.643,20.851C21.498,21.204 21.155,21.434 20.774,21.434C20.574,21.434 20.403,21.407 20.204,21.353C19.633,21.217 19.206,20.757 19.206,20.242C19.206,20.079 19.235,19.944 19.292,19.781L23.084,10.731L24.452,13.998C24.452,13.998 22.361,19.099 21.643,20.851ZM29.055,0.001L29.056,0.001C29.157,0.001 29.302,0.006 29.398,0.016C30.142,0.09 30.737,0.46 31.065,1.274L33.658,7.464L32.319,10.731L29.054,2.957L25.792,10.731L24.452,7.464L27.046,1.274C27.373,0.46 27.969,0.09 28.713,0.016C28.809,0.006 28.954,0.001 29.054,0.001L29.055,0.001Z" style="fill:rgb(255,0,0);"/>
        </g>
        <g transform="matrix(1,0,0,1,0.147,0)">
            <path d="M49.447,8.955C46.479,8.373 45.552,7.392 45.552,5.484C45.552,3.736 46.956,2.287 50.03,2.287C52.971,2.287 54.083,3.683 54.507,5.194C54.719,5.749 55.196,5.961 55.673,5.961C55.832,5.961 55.991,5.935 56.123,5.909C56.654,5.803 57.104,5.406 57.104,4.849C57.104,4.717 57.077,4.584 57.024,4.452C56.442,2.544 54.799,0.001 50.03,0.001C45.05,0.001 42.983,2.703 42.983,5.484C42.983,8.955 44.784,10.466 48.758,11.287L50.878,11.737C54.004,12.373 55.196,13.327 55.196,15.5C55.196,17.778 53.315,19.174 50.295,19.174C46.427,19.174 45.552,17.248 45.076,15.473C44.916,14.916 44.413,14.678 43.91,14.678C43.751,14.678 43.619,14.705 43.46,14.731C42.903,14.863 42.453,15.261 42.453,15.844C42.453,15.95 42.479,16.056 42.506,16.189C43.142,18.334 44.387,21.46 50.427,21.46C55.169,21.46 57.793,18.891 57.793,15.473C57.793,11.632 55.541,10.228 51.408,9.353L49.447,8.955Z" style="fill:white;fill-rule:nonzero;"/>
        </g>
        <g transform="matrix(1,0,0,1,0.2205,0)">
            <path d="M61.341,20.348C61.341,21.08 61.87,21.46 62.585,21.46C63.327,21.46 63.884,21.08 63.884,20.348L63.884,1.113C63.884,0.353 63.327,0.001 62.585,0.001C61.87,0.001 61.341,0.353 61.341,1.113L61.341,20.348Z" style="fill:white;fill-rule:nonzero;"/>
        </g>
        <g transform="matrix(1.00063,0,0,1.00063,0.113559,-0.0200483)">
            <g transform="matrix(1,0,0,1,0.00086461,-0.0482548)">
                <path d="M1.44,27.426C0.829,27.306 0.638,27.104 0.638,26.711C0.638,26.351 0.927,26.034 1.56,26.034C2.165,26.034 2.394,26.34 2.482,26.651C2.525,26.766 2.624,26.809 2.722,26.809C2.754,26.809 2.787,26.804 2.814,26.798C2.923,26.776 3.016,26.695 3.016,26.581C3.016,26.553 3.011,26.526 3,26.498C2.88,26.106 2.542,25.582 1.56,25.582C0.535,25.582 0.109,26.138 0.109,26.711C0.109,27.426 0.48,27.736 1.298,27.905L1.734,27.998C2.378,28.129 2.624,28.326 2.624,28.773C2.624,29.242 2.236,29.542 1.614,29.542C0.818,29.542 0.638,29.133 0.54,28.768C0.507,28.653 0.403,28.604 0.3,28.604C0.267,28.604 0.24,28.61 0.207,28.614C0.093,28.642 0,28.724 0,28.844C0,28.865 0.005,28.887 0.011,28.915C0.142,29.356 0.398,30 1.642,30C2.618,30 3.158,29.471 3.158,28.768C3.158,27.976 2.694,27.688 1.844,27.508L1.44,27.426Z" style="fill:white;fill-rule:nonzero;stroke:white;stroke-width:0.2px;"/>
            </g>
            <g transform="matrix(1,0,0,1,0.00086461,-0.0482548)">
                <path d="M5.225,28.173L6.458,28.173C7.325,28.173 7.827,27.698 7.827,26.88C7.827,26.106 7.341,25.663 6.48,25.663L5.269,25.663C4.882,25.663 4.713,25.833 4.713,26.253L4.713,29.711C4.713,29.869 4.816,29.945 4.969,29.945C5.116,29.945 5.225,29.869 5.225,29.717L5.225,28.173ZM5.225,27.714L5.225,26.319C5.225,26.199 5.28,26.128 5.4,26.128L6.447,26.128C6.993,26.128 7.292,26.401 7.292,26.891C7.292,27.42 6.998,27.714 6.447,27.714L5.225,27.714Z" style="fill:white;fill-rule:nonzero;stroke:white;stroke-width:0.2px;"/>
            </g>
            <g transform="matrix(1,0,0,1,0.00086461,-0.0482548)">
                <path d="M9.851,27.922L11.71,27.922C11.841,27.922 11.923,27.819 11.923,27.692C11.923,27.556 11.847,27.459 11.71,27.459L9.851,27.459L9.851,26.329C9.851,26.199 9.905,26.138 10.036,26.138L11.956,26.138C12.098,26.138 12.174,26.034 12.174,25.898C12.174,25.762 12.098,25.663 11.956,25.663L9.894,25.663C9.507,25.663 9.338,25.833 9.338,26.253L9.338,29.329C9.338,29.743 9.507,29.913 9.894,29.913L12.005,29.913C12.147,29.913 12.223,29.804 12.223,29.673C12.223,29.536 12.147,29.438 12.005,29.438L10.052,29.438C9.932,29.438 9.851,29.389 9.851,29.264L9.851,27.922Z" style="fill:white;fill-rule:nonzero;stroke:white;stroke-width:0.2px;"/>
            </g>
            <g transform="matrix(1,0,0,1,0.00086461,-0.0482548)">
                <path d="M15.387,25.582C14.252,25.582 13.505,26.46 13.505,27.786C13.505,29.144 14.252,30 15.425,30C16.396,30 16.854,29.389 17.045,28.849C17.056,28.816 17.061,28.79 17.061,28.757C17.061,28.642 16.963,28.56 16.87,28.538C16.832,28.528 16.794,28.522 16.761,28.522C16.658,28.522 16.559,28.571 16.516,28.691C16.374,29.128 16.063,29.52 15.409,29.52C14.59,29.52 14.05,28.844 14.05,27.791C14.05,26.717 14.59,26.056 15.409,26.056C16.03,26.056 16.303,26.379 16.467,26.772C16.516,26.875 16.603,26.913 16.696,26.913C16.739,26.913 16.783,26.908 16.827,26.891C16.908,26.864 16.996,26.787 16.996,26.673C16.996,26.64 16.99,26.602 16.974,26.564C16.777,26.084 16.347,25.582 15.387,25.582Z" style="fill:white;fill-rule:nonzero;stroke:white;stroke-width:0.2px;"/>
            </g>
            <g transform="matrix(1,0,0,1,0.00086461,-0.0482548)">
                <path d="M18.55,29.722C18.55,29.869 18.659,29.945 18.807,29.945C18.959,29.945 19.074,29.869 19.074,29.722L19.074,25.854C19.074,25.702 18.959,25.631 18.807,25.631C18.659,25.631 18.55,25.702 18.55,25.854L18.55,29.722Z" style="fill:white;fill-rule:nonzero;stroke:white;stroke-width:0.2px;"/>
            </g>
            <g transform="matrix(1,0,0,1,0.00086461,-0.0482548)">
                <path d="M21.49,28.669L23.377,28.669L23.808,29.798C23.847,29.902 23.934,29.951 24.032,29.951C24.065,29.951 24.097,29.945 24.13,29.934C24.239,29.907 24.326,29.826 24.326,29.717C24.326,29.684 24.321,29.657 24.305,29.624L22.821,25.887C22.75,25.702 22.608,25.631 22.434,25.631C22.265,25.631 22.128,25.702 22.057,25.887L20.574,29.613C20.563,29.646 20.557,29.673 20.557,29.706C20.557,29.809 20.639,29.902 20.748,29.929C20.786,29.94 20.819,29.945 20.857,29.945C20.95,29.945 21.032,29.902 21.07,29.793L21.49,28.669ZM21.654,28.211L22.27,26.629C22.335,26.466 22.39,26.291 22.439,26.106C22.488,26.291 22.548,26.466 22.608,26.623L23.214,28.211L21.654,28.211Z" style="fill:white;fill-rule:nonzero;stroke:white;stroke-width:0.2px;"/>
            </g>
            <g transform="matrix(1,0,0,1,0.00086461,-0.0482548)">
                <path d="M25.821,29.329C25.821,29.743 25.99,29.913 26.377,29.913L28.472,29.913C28.613,29.913 28.695,29.793 28.695,29.662C28.695,29.526 28.613,29.422 28.472,29.422L26.541,29.422C26.415,29.422 26.345,29.356 26.345,29.231L26.345,25.86C26.345,25.702 26.235,25.631 26.083,25.631C25.936,25.631 25.821,25.702 25.821,25.865L25.821,29.329Z" style="fill:white;fill-rule:nonzero;stroke:white;stroke-width:0.2px;"/>
            </g>
            <g transform="matrix(1,0,0,1,0.00086461,-0.0482548)">
                <path d="M30.059,29.722C30.059,29.869 30.168,29.945 30.315,29.945C30.468,29.945 30.583,29.869 30.583,29.722L30.583,25.854C30.583,25.702 30.468,25.631 30.315,25.631C30.168,25.631 30.059,25.702 30.059,25.854L30.059,29.722Z" style="fill:white;fill-rule:nonzero;stroke:white;stroke-width:0.2px;"/>
            </g>
            <g transform="matrix(1,0,0,1,0.00086461,-0.0482548)">
                <path d="M34.39,26.138C34.472,26.138 34.613,26.128 34.733,26.111C34.635,26.21 34.553,26.28 34.493,26.357L32.279,29.203C32.17,29.34 32.099,29.438 32.099,29.613C32.099,29.787 32.213,29.913 32.388,29.913L35.159,29.913C35.301,29.913 35.377,29.793 35.377,29.668C35.377,29.536 35.306,29.438 35.17,29.438L33.021,29.438C32.928,29.438 32.786,29.449 32.672,29.46C32.77,29.362 32.852,29.297 32.912,29.22L35.11,26.379C35.23,26.226 35.295,26.133 35.295,25.958C35.295,25.784 35.197,25.663 35.011,25.663L32.503,25.663C32.366,25.663 32.29,25.773 32.29,25.904C32.29,26.034 32.366,26.138 32.503,26.138L34.39,26.138Z" style="fill:white;fill-rule:nonzero;stroke:white;stroke-width:0.2px;"/>
            </g>
            <g transform="matrix(1,0,0,1,0.00086461,-0.0482548)">
                <path d="M37.395,27.922L39.255,27.922C39.386,27.922 39.468,27.819 39.468,27.692C39.468,27.556 39.391,27.459 39.255,27.459L37.395,27.459L37.395,26.329C37.395,26.199 37.45,26.138 37.58,26.138L39.5,26.138C39.642,26.138 39.718,26.034 39.718,25.898C39.718,25.762 39.642,25.663 39.5,25.663L37.439,25.663C37.051,25.663 36.882,25.833 36.882,26.253L36.882,29.329C36.882,29.743 37.051,29.913 37.439,29.913L39.549,29.913C39.691,29.913 39.768,29.804 39.768,29.673C39.768,29.536 39.691,29.438 39.549,29.438L37.597,29.438C37.477,29.438 37.395,29.389 37.395,29.264L37.395,27.922Z" style="fill:white;fill-rule:nonzero;stroke:white;stroke-width:0.2px;"/>
            </g>
            <g transform="matrix(1,0,0,1,0.00086461,-0.0482548)">
                <path d="M41.229,29.329C41.229,29.743 41.398,29.913 41.786,29.913L42.757,29.913C43.951,29.913 44.671,29.1 44.671,27.742C44.671,26.427 43.962,25.663 42.757,25.663L41.786,25.663C41.398,25.663 41.229,25.833 41.229,26.253L41.229,29.329ZM41.748,26.313C41.748,26.199 41.824,26.133 41.928,26.133L42.746,26.133C43.646,26.133 44.131,26.706 44.131,27.747C44.131,28.811 43.613,29.438 42.729,29.438L41.922,29.438C41.813,29.438 41.748,29.378 41.748,29.253L41.748,26.313Z" style="fill:white;fill-rule:nonzero;stroke:white;stroke-width:0.2px;"/>
            </g>
            <g transform="matrix(1,0,0,1,0.00086461,-0.0482548)">
                <path d="M48.887,29.722C48.887,29.869 48.996,29.945 49.144,29.945C49.296,29.945 49.411,29.869 49.411,29.722L49.411,25.854C49.411,25.702 49.296,25.631 49.144,25.631C48.996,25.631 48.887,25.702 48.887,25.854L48.887,29.722Z" style="fill:white;fill-rule:nonzero;stroke:white;stroke-width:0.2px;"/>
            </g>
            <g transform="matrix(1,0,0,1,0.00086461,-0.0482548)">
                <path d="M52.296,26.144L52.296,29.722C52.296,29.869 52.411,29.945 52.558,29.945C52.705,29.945 52.82,29.869 52.82,29.722L52.82,26.144L54.058,26.144C54.184,26.144 54.265,26.034 54.265,25.909C54.265,25.779 54.189,25.663 54.058,25.663L51.053,25.663C50.922,25.663 50.846,25.779 50.846,25.909C50.846,26.034 50.922,26.144 51.058,26.144L52.296,26.144Z" style="fill:white;fill-rule:nonzero;stroke:white;stroke-width:0.2px;"/>
            </g>
            <g transform="matrix(1,0,0,1,0.00086461,-0.0482548)">
                <path d="M60.02,25.582C58.885,25.582 58.138,26.46 58.138,27.786C58.138,29.144 58.885,30 60.058,30C61.029,30 61.487,29.389 61.678,28.849C61.689,28.816 61.694,28.79 61.694,28.757C61.694,28.642 61.596,28.56 61.503,28.538C61.465,28.528 61.427,28.522 61.394,28.522C61.291,28.522 61.192,28.571 61.149,28.691C61.007,29.128 60.696,29.52 60.041,29.52C59.223,29.52 58.683,28.844 58.683,27.791C58.683,26.717 59.223,26.056 60.041,26.056C60.663,26.056 60.936,26.379 61.1,26.772C61.149,26.875 61.236,26.913 61.329,26.913C61.372,26.913 61.416,26.908 61.46,26.891C61.542,26.864 61.629,26.787 61.629,26.673C61.629,26.64 61.623,26.602 61.607,26.564C61.411,26.084 60.98,25.582 60.02,25.582Z" style="fill:white;fill-rule:nonzero;stroke:white;stroke-width:0.2px;"/>
            </g>
            <g transform="matrix(1,0,0,1,0.00086461,-0.0482548)">
                <path d="M63.696,27.922L65.556,27.922C65.687,27.922 65.768,27.819 65.768,27.692C65.768,27.556 65.692,27.459 65.556,27.459L63.696,27.459L63.696,26.329C63.696,26.199 63.75,26.138 63.881,26.138L65.801,26.138C65.943,26.138 66.019,26.034 66.019,25.898C66.019,25.762 65.943,25.663 65.801,25.663L63.74,25.663C63.352,25.663 63.183,25.833 63.183,26.253L63.183,29.329C63.183,29.743 63.352,29.913 63.74,29.913L65.85,29.913C65.992,29.913 66.069,29.804 66.069,29.673C66.069,29.536 65.992,29.438 65.85,29.438L63.898,29.438C63.778,29.438 63.696,29.389 63.696,29.264L63.696,27.922Z" style="fill:white;fill-rule:nonzero;stroke:white;stroke-width:0.2px;"/>
            </g>
            <g transform="matrix(1,0,0,1,0.00086461,-0.0482548)">
                <path d="M70.307,27.508C70.307,28.293 70.361,29.084 70.394,29.422C70.252,29.117 69.947,28.533 69.696,28.124L68.321,25.893C68.217,25.729 68.125,25.631 67.879,25.631C67.667,25.631 67.536,25.757 67.536,25.958L67.536,29.722C67.536,29.869 67.645,29.945 67.798,29.945C67.945,29.945 68.054,29.869 68.054,29.722L68.054,28.048C68.054,27.246 68.01,26.487 67.977,26.138C68.103,26.412 68.376,26.946 68.594,27.295L70.039,29.635C70.176,29.853 70.263,29.945 70.497,29.945C70.716,29.945 70.825,29.815 70.825,29.602L70.825,25.854C70.825,25.702 70.721,25.631 70.568,25.631C70.416,25.631 70.307,25.702 70.307,25.854L70.307,27.508Z" style="fill:white;fill-rule:nonzero;stroke:white;stroke-width:0.2px;"/>
            </g>
            <g transform="matrix(1,0,0,1,0.00086461,-0.0482548)">
                <path d="M73.716,26.144L73.716,29.722C73.716,29.869 73.83,29.945 73.977,29.945C74.125,29.945 74.239,29.869 74.239,29.722L74.239,26.144L75.477,26.144C75.603,26.144 75.685,26.034 75.685,25.909C75.685,25.779 75.609,25.663 75.477,25.663L72.472,25.663C72.341,25.663 72.265,25.779 72.265,25.909C72.265,26.034 72.341,26.144 72.478,26.144L73.716,26.144Z" style="fill:white;fill-rule:nonzero;stroke:white;stroke-width:0.2px;"/>
            </g>
            <g transform="matrix(1,0,0,1,0.00086461,-0.0482548)">
                <path d="M77.616,27.922L79.476,27.922C79.606,27.922 79.688,27.819 79.688,27.692C79.688,27.556 79.612,27.459 79.476,27.459L77.616,27.459L77.616,26.329C77.616,26.199 77.67,26.138 77.801,26.138L79.721,26.138C79.863,26.138 79.939,26.034 79.939,25.898C79.939,25.762 79.863,25.663 79.721,25.663L77.659,25.663C77.271,25.663 77.102,25.833 77.102,26.253L77.102,29.329C77.102,29.743 77.271,29.913 77.659,29.913L79.77,29.913C79.911,29.913 79.988,29.804 79.988,29.673C79.988,29.536 79.911,29.438 79.77,29.438L77.818,29.438C77.697,29.438 77.616,29.389 77.616,29.264L77.616,27.922Z" style="fill:white;fill-rule:nonzero;stroke:white;stroke-width:0.2px;"/>
            </g>
            <g transform="matrix(1,0,0,1,0.00086461,-0.0482548)">
                <path d="M84.553,29.302C84.15,28.282 83.975,27.916 83.648,27.819C84.155,27.709 84.51,27.382 84.51,26.755C84.51,26.084 84.074,25.663 83.282,25.663L82.006,25.663C81.619,25.663 81.45,25.833 81.45,26.253L81.45,29.711C81.45,29.869 81.559,29.945 81.712,29.945C81.859,29.945 81.963,29.869 81.963,29.717L81.963,28.004L82.966,28.004C83.512,28.004 83.664,28.391 84.057,29.455L84.193,29.804C84.232,29.902 84.313,29.945 84.406,29.945C84.445,29.945 84.488,29.94 84.526,29.929C84.635,29.902 84.706,29.82 84.706,29.717C84.706,29.684 84.7,29.657 84.689,29.624L84.553,29.302ZM81.963,27.556L81.963,26.307C81.963,26.177 82.028,26.116 82.142,26.116L83.25,26.116C83.736,26.116 83.986,26.368 83.986,26.831C83.986,27.268 83.681,27.556 83.217,27.556L81.963,27.556Z" style="fill:white;fill-rule:nonzero;stroke:white;stroke-width:0.2px;"/>
            </g>
        </g>
    </g>
</svg>
