<?xml version="1.0" encoding="UTF-8" standalone="no"?>
<!DOCTYPE svg PUBLIC "-//W3C//DTD SVG 1.1//EN" "http://www.w3.org/Graphics/SVG/1.1/DTD/svg11.dtd">
<svg width="100%" height="100%" viewBox="0 0 109 136" version="1.1" xmlns="http://www.w3.org/2000/svg" xmlns:xlink="http://www.w3.org/1999/xlink" xml:space="preserve" xmlns:serif="http://www.serif.com/" style="fill-rule:evenodd;clip-rule:evenodd;stroke-linejoin:round;stroke-miterlimit:1.41421;">
    <g transform="matrix(1,0,0,1,-939.43,-188.204)">
        <g transform="matrix(0.836414,0,0,0.836414,139.048,58.151)">
            <g transform="matrix(0.809935,0,0,0.809935,507.854,-174.719)">
                <g transform="matrix(0.946995,0,0,0.946995,-298.357,229.383)">
                    <path d="M1070.23,255.589C1070.23,241.541 1058.83,230.135 1044.78,230.135L925.993,230.135C911.945,230.135 900.539,241.541 900.539,255.589L900.539,374.376C900.539,388.425 911.945,399.83 925.993,399.83L1044.78,399.83C1058.83,399.83 1070.23,388.425 1070.23,374.376L1070.23,255.589Z" style="fill:rgb(247,223,30);"/>
                </g>
                <g transform="matrix(0.627737,0,0,0.627737,554.449,447.32)">
                    <path d="M67.312,213.932L86.902,202.076C90.682,208.777 94.12,214.447 102.367,214.447C110.272,214.447 115.257,211.355 115.257,199.327L115.257,117.529L139.314,117.529L139.314,199.667C139.314,224.584 124.708,235.926 103.398,235.926C84.153,235.926 72.982,225.959 67.311,213.93M152.381,211.354L171.969,200.013C177.126,208.434 183.828,214.62 195.684,214.62C205.653,214.62 212.009,209.636 212.009,202.762C212.009,194.514 205.479,191.592 194.481,186.782L188.468,184.202C171.111,176.815 159.598,167.535 159.598,147.945C159.598,129.901 173.345,116.153 194.826,116.153C210.12,116.153 221.118,121.481 229.022,135.4L210.29,147.43C206.165,140.041 201.699,137.12 194.825,137.12C187.779,137.12 183.311,141.588 183.311,147.43C183.311,154.647 187.779,157.57 198.089,162.038L204.103,164.615C224.553,173.38 236.066,182.315 236.066,202.419C236.066,224.073 219.054,235.929 196.199,235.929C173.86,235.929 159.425,225.275 152.38,211.355" style="fill-rule:nonzero;"/>
                </g>
            </g>
        </g>
        <g transform="matrix(6.80407,0,0,1.48233,-4946.09,-90.7765)">
            <rect x="865" y="188.204" width="16" height="18.109" style="fill:none;"/>
        </g>
    </g>
</svg>
